<?xml version="1.0" encoding="UTF-8" standalone="no"?>
<svg
   version="1.1"
   viewBox="0 0 512 512"
   id="svg6"
   sodipodi:docname="_c97ccd5f-e1ff-4069-81cd-8278d921ac82.svg"
   inkscape:version="1.3 (0e150ed, 2023-07-21)"
   width="512"
   height="512"
   inkscape:export-filename="../../../Volumes/Source/piot/conclave/docs/images/logo.svg"
   inkscape:export-xdpi="96"
   inkscape:export-ydpi="96"
   xmlns:inkscape="http://www.inkscape.org/namespaces/inkscape"
   xmlns:sodipodi="http://sodipodi.sourceforge.net/DTD/sodipodi-0.dtd"
   xmlns:xlink="http://www.w3.org/1999/xlink"
   xmlns="http://www.w3.org/2000/svg"
   xmlns:svg="http://www.w3.org/2000/svg">
  <defs
     id="defs6">
    <linearGradient
       id="linearGradient14"
       inkscape:collect="always">
      <stop
         style="stop-color:#ed3700;stop-opacity:1;"
         offset="0"
         id="stop14" />
      <stop
         style="stop-color:#e4b55a;stop-opacity:1;"
         offset="1"
         id="stop15" />
    </linearGradient>
    <linearGradient
       inkscape:collect="always"
       xlink:href="#linearGradient14"
       id="linearGradient15"
       x1="356.16852"
       y1="429.49808"
       x2="669.59729"
       y2="429.49808"
       gradientUnits="userSpaceOnUse"
       gradientTransform="matrix(0.681126,0,0,0.67432705,-90.361869,-129.25613)" />
  </defs>
  <sodipodi:namedview
     id="namedview6"
     pagecolor="#4d4d4d"
     bordercolor="#000000"
     borderopacity="0.25"
     inkscape:showpageshadow="2"
     inkscape:pageopacity="0.0"
     inkscape:pagecheckerboard="0"
     inkscape:deskcolor="#d1d1d1"
     inkscape:zoom="0.63252911"
     inkscape:cx="440.29594"
     inkscape:cy="531.99132"
     inkscape:window-width="1392"
     inkscape:window-height="1212"
     inkscape:window-x="461"
     inkscape:window-y="41"
     inkscape:window-maximized="0"
     inkscape:current-layer="svg6" />
  <path
     fill="none"
     stroke-width="0.677718"
     stroke="#f7f0e0"
     vector-effect="non-scaling-stroke"
     d="m 247.14968,48.597628 c -2.71769,24.801744 -11.36118,47.910934 -24.36387,68.821812 -5.73963,9.23379 -11.10009,18.3417 -16.08139,27.32374 -1.1897,2.13986 -2.84484,3.22104 -4.96541,3.24351 -2.47929,0.027 -3.86879,-2.13087 -4.66571,-4.07293 -4.30472,-10.47005 -8.10313,-21.12443 -11.39524,-31.96311 -1.32819,-4.38312 -7.60817,-4.21454 -8.01685,0.66084 -1.02623,12.25028 -3.22399,23.81499 -6.5933,34.69413 -2.62915,8.49203 -5.56934,17.02452 -8.82058,25.59746 -4.0141,10.59592 -6.84986,21.27052 -8.50726,32.02379 -1.50756,9.75976 -1.55297,19.6926 -0.13623,29.79851 2.32945,16.66937 8.96362,31.17639 19.9025,43.52107 9.6175,10.86116 21.5917,18.25628 35.92259,22.18536 2.23409,0.61139 4.47273,0.87438 6.7159,0.78896 3.36476,-0.12812 6.04159,-2.69056 5.79638,-6.19032 -0.31332,-4.40336 -4.21617,-6.52074 -7.53325,-8.84717 -1.44853,-1.02048 -2.863,-2.18482 -4.24342,-3.49301 -15.62503,-14.84194 -22.83815,-35.90792 -21.55763,-57.54033 0.16347,-2.76024 0.53127,-5.33393 1.10342,-7.72105 2.07743,-8.7123 14.07887,-6.94557 14.22872,2.04321 0.0499,2.90411 0.17709,5.81046 0.38143,8.71905 0.84914,12.23679 6.05748,22.67762 15.62503,31.32249 1.55751,1.41159 3.34433,2.55795 5.36046,3.43907 3.01739,1.32168 6.8317,0.31019 6.83851,-3.44581 0.0182,-8.74827 0.0114,-17.30323 -0.0204,-25.66489 -0.005,-1.45654 -0.4609,-2.71079 -1.36907,-3.76274 -14.09931,-16.31872 -18.10433,-38.4299 -14.28321,-59.4217 1.18062,-6.48703 2.91749,-12.2795 5.21061,-17.37741 2.28859,-5.09117 5.00628,-10.19582 8.26206,-14.8824 3.10139,-4.46404 6.15057,-8.85616 9.14752,-13.17635 3.8915,-5.6059 6.9316,-11.29273 9.12028,-17.06048 1.23284,-3.25025 4.20936,-5.44856 7.77165,-4.6596 14.49436,3.2098 -2.30902,31.2753 -5.9871,37.49934 -2.45205,4.14036 -4.76107,8.40211 -6.80445,12.7178 -4.45002,9.40911 -6.38896,19.29924 -5.81681,29.67039 0.29061,5.29572 1.34181,9.73279 3.15361,13.31122 1.0671,2.0994 2.8017,2.88162 5.2038,2.34666 3.29665,-0.73502 4.65209,-6.75002 4.97903,-9.48778 0.26791,-2.20281 0.59258,-4.51575 0.97401,-6.93883 0.45863,-2.91309 1.72552,-4.97203 3.80069,-6.17683 3.19448,-1.8544 7.12457,-0.79571 9.33142,1.96229 1.2896,1.61388 1.92305,3.47278 1.90034,5.57668 -0.0908,9.68334 -0.78329,19.93535 -2.07743,30.75606 -0.30877,2.55794 -0.084,4.41684 0.67432,5.57668 1.34862,2.06794 3.31481,2.51075 5.89855,1.32843 1.89807,-0.86314 3.59861,-2.45905 5.10163,-4.78772 6.85894,-10.64089 9.34505,-23.52728 7.60137,-36.09673 -0.48134,-3.45705 -0.9286,-6.62639 -1.34182,-9.50801 -1.15792,-8.01775 9.41316,-12.04348 13.56122,-4.72704 0.65842,1.16434 1.20786,2.4096 1.64832,3.73578 5.08801,15.45557 6.88619,32.94762 2.68364,48.72687 -2.27496,8.53698 -6.72272,15.69159 -12.2194,22.70459 -0.59939,0.76424 -0.9059,1.69481 -0.91952,2.79171 -0.0681,5.03947 -0.12715,9.87215 -0.1771,14.49804 -0.0204,2.3534 1.0285,4.49101 3.55548,4.43032 2.8403,-0.0674 5.71465,-1.95554 7.88063,-3.79646 8.07134,-6.85116 12.60764,-14.41037 15.65909,-24.03301 2.7858,-8.773 14.24915,-6.55446 13.86091,2.37363 -0.0863,1.99601 -0.27699,3.92458 -0.57214,5.78572 -2.28859,14.54524 -8.67755,28.46335 -19.44615,38.73335 -2.65639,2.53547 -5.63291,4.59891 -8.48683,6.92534 -2.19777,1.79371 -3.19221,4.06844 -2.98333,6.82419 0.49722,6.70955 8.2893,4.81469 12.32157,3.71554 15.23452,-4.15835 27.81037,-12.19858 37.72756,-24.12068 3.27395,-3.93807 6.67731,-9.34617 10.21008,-16.22431 2.01159,-3.91109 3.64403,-8.20656 4.8973,-12.88639 4.04134,-15.06896 4.6816,-30.1132 1.92077,-45.13271 -2.87889,-15.64438 -8.06453,-31.12243 -15.55691,-46.43416 -3.71441,-7.59742 -7.254,-14.9251 -10.61876,-21.98306 -2.05019,-4.30221 -8.31655,-2.79846 -8.06453,2.0095 0.17255,3.27273 0.30878,6.74777 0.40868,10.42509 0.25882,9.43159 -0.83098,18.28551 -3.26941,26.56175 -0.93314,3.16259 -2.41118,6.01499 -5.97347,6.66235 -4.50225,0.82268 -7.15183,-3.54696 -6.89981,-7.38388 0.35419,-5.53398 0.47225,-11.18934 0.35419,-16.96607 -0.26564,-12.83245 -3.05145,-25.49631 -7.32892,-37.60048 -3.8552,-10.93309 -8.48005,-21.216578 -13.87457,-30.850468 -6.37079,-11.39163 -12.18534,-20.964824 -17.44363,-28.719585 -5.57161,-8.208806 -10.33042,-15.846686 -14.2764,-22.913633 -1.88899,-3.385122 -3.63495,-6.983783 -5.23786,-10.795976 -1.13748,-2.710795 -3.47375,-5.489022 -6.64779,-3.337919 -1.32593,0.903598 -1.92759,2.214038 -1.80499,3.931326 0.63118,8.649371 0.52674,16.788499 -0.31332,24.417383 z m 91.48885,299.590022 c -1.32139,-0.31469 -1.35771,-0.74176 -0.10898,-1.28122 20.65628,-8.90561 42.88369,-18.24954 66.68223,-28.03178 2.95609,-1.21378 5.89856,-2.56918 8.67755,-4.07967 5.14931,-2.8052 7.76484,-9.11016 7.92149,-14.74079 0.32013,-11.38264 -5.04033,-22.15839 -13.59527,-29.50855 -3.2467,-2.78722 -7.21767,-4.75851 -11.91289,-5.91385 -4.52949,-1.11264 -8.41872,-0.61364 -12.58721,1.18007 -5.66243,2.42758 -11.20907,4.91809 -16.63991,7.47154 -0.50403,0.23377 -0.82871,0.63387 -0.97401,1.20031 -1.70963,6.75001 -6.49794,11.69283 -11.60639,16.40637 -0.79465,0.73277 -1.49393,1.6094 -2.09787,2.62988 -0.18745,0.32023 -0.0194,0.7295 0.34057,0.82942 1.26235,0.35065 2.43162,0.22927 3.5078,-0.36414 3.26259,-1.79371 6.15738,-4.30895 9.64474,-5.90036 6.62509,-3.01199 14.21737,-6.30945 22.77685,-9.89238 9.01811,-3.76948 13.88816,8.26051 5.45582,11.76701 -15.89293,6.60391 -30.53714,12.95832 -43.93262,19.06323 -1.47124,0.67432 -3.59635,1.48352 -5.13569,0.91034 -3.21038,-1.19581 -4.752,-3.52223 -4.62485,-6.97929 0.0221,-0.48668 -0.52473,-0.79099 -0.93314,-0.51923 -5.33095,3.47503 -10.65736,6.29147 -15.97922,8.44932 -9.68561,3.93133 -19.20094,6.4668 -29.71753,5.3609 -0.7288,-0.0742 -1.54615,0 -1.94802,0.71479 -1.13067,2.05445 -3.17404,3.72004 -6.13013,4.99676 -37.15769,16.08045 -75.11458,32.78803 -113.87064,50.12273 -1.14884,0.51249 -2.38621,0.95754 -3.71214,1.33517 -3.06507,0.87662 -6.70228,-2.00275 -7.1995,-4.80121 -0.55852,-3.11539 0.87865,-5.83293 3.65764,-7.07369 12.87783,-5.75426 44.26638,-19.68585 94.16567,-41.79479 2.20231,-0.97553 4.22753,-1.94881 6.07565,-2.91984 1.2124,-0.63387 1.74368,-1.59141 1.75049,-2.87938 0.0727,-13.81471 0.10898,-28.805 0.10898,-44.97087 0,-4.41684 -0.36781,-7.99752 -4.83599,-9.44058 -2.21593,-0.71928 -4.33651,-0.5035 -6.36172,0.64736 -2.38848,1.35315 -3.57591,3.59192 -3.56229,6.7163 0.0635,14.07545 0.0159,27.44735 -0.14304,40.11571 -0.009,0.96654 -0.0431,1.9533 -0.10216,2.9603 -0.0202,0.33041 -0.22525,0.62192 -0.53128,0.75524 -7.61953,3.24127 -15.12554,6.55446 -22.51803,9.93958 -1.34863,0.62039 -2.68364,1.07668 -4.00502,1.36889 -0.24066,0.0494 -0.47452,0.0315 -0.70156,-0.054 -4.96768,-1.95105 -9.59025,-3.69081 -13.86772,-5.21929 -9.23607,-3.29746 -17.82507,-6.68258 -26.35958,-10.43858 -8.47321,-3.72229 -17.49132,-7.35916 -27.05432,-10.91061 -4.836,-1.80046 -6.55244,-7.73453 -2.52017,-11.35567 0.55852,-0.499 1.15791,-0.55295 1.83904,-0.7485 0.19227,-0.0575 0.26639,-0.28813 0.14304,-0.44506 -1.81634,-2.23877 -3.04009,-4.84617 -3.67127,-7.82219 -0.27926,-1.3082 -1.14429,-2.41409 -2.39076,-2.93333 -5.92125,-2.46803 -11.62682,-4.72703 -17.11669,-6.77698 -2.27496,-0.85415 -4.37283,-1.28572 -6.29361,-1.29471 -13.05037,-0.0539 -24.0778,10.40487 -28.763947,22.06398 -3.753004,9.33943 -4.352395,24.7006 6.647787,29.85246 10.23733,4.79446 20.66537,8.64487 31.21601,12.98079 4.04589,1.66335 8.25298,3.35366 12.62126,5.07094 9.78551,3.83917 19.59373,7.83568 29.42464,11.98954 0.14985,0.0629 0.2611,0.1506 0.33376,0.26299 0.0501,0.0754 0.0212,0.1773 -0.0613,0.21578 -10.07158,4.8102 -19.75946,9.16411 -29.06364,13.06172 -6.41621,2.68832 -10.4235,4.64835 -12.02187,5.88013 -5.75325,4.45056 -9.32916,9.96655 -10.72774,16.54798 -2.43843,11.45907 0.12487,21.41888 7.68991,29.87944 6.76358,7.57269 15.62503,10.90386 25.63759,8.05146 2.10694,-0.59791 4.06859,-1.27448 5.88492,-2.02972 34.55579,-14.35418 67.86967,-28.53078 99.94162,-42.52981 15.3662,-6.7118 29.04776,-12.67735 41.04465,-17.89664 1.48486,-0.64736 3.60997,-1.42283 5.16975,-0.78222 10.44393,4.27523 21.08085,8.59317 31.91075,12.95382 2.11149,0.84965 3.86199,1.48352 5.27873,3.19631 1.9344,2.33992 1.77093,6.44657 -0.42911,8.57744 -2.59509,2.52199 -5.48306,2.23202 -8.53451,0.94406 -9.11346,-3.83917 -18.88989,-7.79522 -29.32928,-11.86816 -0.81281,-0.31918 -1.62789,-0.28546 -2.44525,0.10115 -6.94748,3.27723 -14.07887,6.42409 -21.39416,9.44058 -3.58273,1.47678 -4.55674,4.38987 -4.26385,7.98403 0.0216,0.23754 0.13918,0.45825 0.32694,0.61364 0.99444,0.81818 2.3022,1.5577 3.92328,2.21854 21.29655,8.66285 42.58854,17.34819 63.876,26.05599 4.20255,1.71954 7.95555,3.47279 12.41012,3.93133 7.58093,0.78896 15.38663,-2.96029 20.64493,-8.69207 6.51156,-7.09392 9.6788,-16.67611 8.50726,-26.41339 -1.30095,-10.80947 -7.54688,-19.68361 -17.93405,-23.69586 -11.86521,-4.58542 -23.24229,-9.04497 -34.13122,-13.37865 -0.45409,-0.17982 -0.91952,-0.32592 -1.39631,-0.43831 z"
     id="path1"
     sodipodi:nodetypes="cccccccccccccscccsccccccccccccccccccccsccccccccccccccccccccccccccccccccccccccccccccccccccccccccccccccccccccccccccccscccccccccccccccccccccccccccccccccccccccccccccccccccc" />
  <path
     fill="none"
     stroke-width="1.00"
     stroke="#0a1c1c"
     vector-effect="non-scaling-stroke"
     d="M 222.78581,117.41944 C 235.7885,96.508562 244.43199,73.399372 247.14968,48.597628 q 1.26009,-11.44333 0.31332,-24.417383 -0.1839,-2.575929 1.80499,-3.931326 c 3.17404,-2.151103 5.51031,0.627124 6.64779,3.337919 q 2.40437,5.718293 5.23786,10.795976 5.91898,10.600421 14.2764,22.913633 7.88744,11.632145 17.44363,28.719585 8.09178,14.450828 13.87454,30.850468 c 4.27747,12.10417 7.06328,24.76803 7.32892,37.60048 q 0.17709,8.6651 -0.35419,16.96607 c -0.25202,3.83692 2.39756,8.20656 6.89981,7.38388 3.56229,-0.64736 5.04033,-3.49976 5.97347,-6.66235 q 3.65765,-12.41437 3.26941,-26.56175 -0.14985,-5.51599 -0.40868,-10.42509 c -0.25202,-4.80796 6.01434,-6.31171 8.06453,-2.0095 q 5.04715,10.58694 10.61876,21.98306 11.23858,22.96758 15.55691,46.43416 4.14125,22.52927 -1.92077,45.13271 -1.87991,7.01975 -4.8973,12.88639 -5.29916,10.31721 -10.21008,16.22431 -14.87579,17.88316 -37.72756,24.12068 c -4.03227,1.09915 -11.82435,2.99401 -12.32157,-3.71554 q -0.31332,-4.13363 2.98333,-6.82419 c 2.85392,-2.32643 5.83044,-4.38987 8.48683,-6.92534 10.7686,-10.27 17.15756,-24.18811 19.44615,-38.73335 q 0.44273,-2.79171 0.57214,-5.78572 c 0.38824,-8.92809 -11.07511,-11.14663 -13.86091,-2.37363 -3.05145,9.62264 -7.58775,17.18185 -15.65909,24.03301 -2.16598,1.84092 -5.04033,3.72903 -7.88063,3.79646 -2.52698,0.0607 -3.57591,-2.07692 -3.55548,-4.43032 q 0.0749,-6.93883 0.1771,-14.49804 0.0204,-1.64535 0.91952,-2.79171 c 5.49668,-7.013 9.94444,-14.16761 12.2194,-22.70459 4.20255,-15.77925 2.40437,-33.2713 -2.68364,-48.72687 q -0.66069,-1.98927 -1.64832,-3.73578 c -4.14806,-7.31644 -14.71914,-3.29071 -13.56122,4.72704 q 0.61982,4.32243 1.34182,9.50801 c 1.74368,12.56945 -0.74243,25.45584 -7.60137,36.09673 q -2.25453,3.49301 -5.10163,4.78772 -3.87561,1.77348 -5.89855,-1.32843 -1.13749,-1.73976 -0.67432,-5.57668 1.94121,-16.23105 2.07743,-30.75606 0.0341,-3.15585 -1.90034,-5.57668 c -2.20685,-2.758 -6.13694,-3.81669 -9.33142,-1.96229 q -3.11275,1.80719 -3.80069,6.17683 -0.57214,3.63462 -0.97401,6.93883 c -0.32694,2.73776 -1.68238,8.75276 -4.97903,9.48778 q -3.60315,0.80245 -5.2038,-2.34666 -2.71769,-5.36764 -3.15361,-13.31122 -0.85822,-15.55672 5.81681,-29.67039 c 2.04338,-4.31569 4.3524,-8.57744 6.80445,-12.7178 3.67808,-6.22404 20.48146,-34.28954 5.9871,-37.49934 -3.56229,-0.78896 -6.53881,1.40935 -7.77165,4.6596 q -3.28303,8.65162 -9.12028,17.06048 -4.49543,6.48029 -9.14752,13.17635 c -3.25578,4.68658 -5.97347,9.79123 -8.26206,14.8824 q -3.43968,7.64687 -5.21061,17.37741 c -3.82112,20.9918 0.1839,43.10298 14.28321,59.4217 q 1.36225,1.57792 1.36907,3.76274 0.0477,12.54249 0.0204,25.66489 c -0.007,3.756 -3.82112,4.76749 -6.83851,3.44581 q -3.0242,-1.32168 -5.36046,-3.43907 -14.35132,-12.9673 -15.62503,-31.32249 -0.3065,-4.36289 -0.38143,-8.71905 c -0.14985,-8.98878 -12.15129,-10.75551 -14.22872,-2.04321 q -0.85822,3.58068 -1.10342,7.72105 c -1.28052,21.63241 5.9326,42.69839 21.55763,57.54033 q 2.07063,1.96229 4.24342,3.49301 c 3.31708,2.32643 7.21993,4.44381 7.53325,8.84717 0.24521,3.49976 -2.43162,6.0622 -5.79638,6.19032 q -3.36476,0.12812 -6.7159,-0.78896 -21.49634,-5.89362 -35.92259,-22.18536 -16.40832,-18.51702 -19.9025,-43.52107 -2.12511,-15.15887 0.13623,-29.79851 2.48611,-16.1299 8.50726,-32.02379 4.87686,-12.85942 8.82058,-25.59746 5.05396,-16.31872 6.5933,-34.69413 c 0.40868,-4.87538 6.68866,-5.04396 8.01685,-0.66084 q 4.93817,16.25803 11.39524,31.96311 c 0.79692,1.94206 2.18642,4.09991 4.66571,4.07293 q 3.18086,-0.0337 4.96541,-3.24351 7.47196,-13.47306 16.08139,-27.32374 z"
     id="path2"
     style="fill:url(#linearGradient15);fill-opacity:1;fill-rule:nonzero;stroke:#535353;stroke-width:1.35544;stroke-dasharray:none;stroke-opacity:1" />
  <path
     fill="none"
     stroke-width="1"
     stroke="#0a1c1c"
     vector-effect="non-scaling-stroke"
     d="m 338.63853,348.18765 c 0.47679,0.11239 0.94222,0.25849 1.39631,0.43831 10.88893,4.33368 22.26601,8.79323 34.13122,13.37865 10.38717,4.01225 16.6331,12.88639 17.93405,23.69586 1.17154,9.73728 -1.9957,19.31947 -8.50726,26.41339 -5.2583,5.73178 -13.064,9.48103 -20.64493,8.69207 -4.45457,-0.45854 -8.20757,-2.21179 -12.41012,-3.93133 -21.28746,-8.7078 -42.57945,-17.39314 -63.876,-26.05599 -1.62108,-0.66084 -2.92884,-1.40036 -3.92328,-2.21854 -0.18776,-0.15539 -0.30536,-0.3761 -0.32694,-0.61364 -0.29289,-3.59416 0.68112,-6.50725 4.26385,-7.98403 7.31529,-3.01649 14.44668,-6.16335 21.39416,-9.44058 0.81736,-0.38661 1.63244,-0.42033 2.44525,-0.10115 10.43939,4.07294 20.21582,8.02899 29.32928,11.86816 3.05145,1.28796 5.93942,1.57793 8.53451,-0.94406 2.20004,-2.13087 2.36351,-6.23752 0.42911,-8.57744 -1.41674,-1.71279 -3.16724,-2.34666 -5.27873,-3.19631 -10.8299,-4.36065 -21.46682,-8.67859 -31.91075,-12.95382 -1.55978,-0.64061 -3.68489,0.13486 -5.16975,0.78222 -11.99689,5.21929 -25.67845,11.18484 -41.04465,17.89664 -32.07195,13.99903 -65.38583,28.17563 -99.94162,42.52981 -1.81633,0.75524 -3.77798,1.43181 -5.88492,2.02972 -10.01256,2.8524 -18.87401,-0.47877 -25.63759,-8.05146 -7.56504,-8.46056 -10.12834,-18.42037 -7.68991,-29.87944 1.39858,-6.58143 4.97449,-12.09742 10.72774,-16.54798 1.59837,-1.23178 5.60566,-3.19181 12.02187,-5.88013 9.30418,-3.89761 18.99206,-8.25152 29.06364,-13.06172 0.0825,-0.0385 0.11146,-0.14037 0.0613,-0.21578 -0.0727,-0.11239 -0.18391,-0.20006 -0.33376,-0.26299 -9.83091,-4.15386 -19.63913,-8.15037 -29.42464,-11.98954 -4.36828,-1.71728 -8.57537,-3.40759 -12.62126,-5.07094 -10.55064,-4.33592 -20.97868,-8.18633 -31.21601,-12.98079 -11.000182,-5.15186 -10.400791,-20.51303 -6.647787,-29.85246 4.686147,-11.65911 15.713577,-22.11793 28.763947,-22.06398 1.92078,0.009 4.01865,0.44056 6.29361,1.29471 5.48987,2.04995 11.19544,4.30895 17.11669,6.77698 1.24647,0.51924 2.1115,1.62513 2.39076,2.93333 0.63118,2.97602 1.85493,5.58342 3.67127,7.82219 0.12335,0.15693 0.0492,0.38755 -0.14304,0.44506 -0.68113,0.19555 -1.28052,0.2495 -1.83904,0.7485 -4.03227,3.62114 -2.31583,9.55521 2.52017,11.35567 9.563,3.55145 18.58111,7.18832 27.05432,10.91061 8.53451,3.756 17.12351,7.14112 26.35958,10.43858 4.27747,1.52848 8.90004,3.26824 13.86772,5.21929 0.22704,0.0854 0.4609,0.1034 0.70156,0.054 1.32138,-0.29221 2.65639,-0.7485 4.00502,-1.36889 7.39249,-3.38512 14.8985,-6.69831 22.51803,-9.93958 0.30603,-0.13332 0.5111,-0.42483 0.53128,-0.75524 0.0591,-1.007 0.0931,-1.99376 0.10216,-2.9603 0.15893,-12.66836 0.20661,-26.04026 0.14304,-40.11571 -0.0136,-3.12438 1.17381,-5.36315 3.56229,-6.7163 2.02521,-1.15086 4.14579,-1.36664 6.36172,-0.64736 4.46818,1.44306 4.83599,5.02374 4.83599,9.44058 0,16.16587 -0.0363,31.15616 -0.10898,44.97087 -0.007,1.28797 -0.53809,2.24551 -1.75049,2.87938 -1.84812,0.97103 -3.87334,1.94431 -6.07565,2.91984 -49.89929,22.10894 -81.28784,36.04053 -94.16567,41.79479 -2.77899,1.24076 -4.21616,3.9583 -3.65764,7.07369 0.49722,2.79846 4.13443,5.67783 7.1995,4.80121 1.32593,-0.37763 2.5633,-0.82268 3.71214,-1.33517 38.75606,-17.3347 76.71295,-34.04228 113.87064,-50.12273 2.95609,-1.27672 4.99946,-2.94231 6.13013,-4.99676 0.40187,-0.71479 1.21922,-0.78897 1.94802,-0.71479 10.51659,1.1059 20.03192,-1.42957 29.71753,-5.3609 5.32186,-2.15785 10.64827,-4.97429 15.97922,-8.44932 0.40841,-0.27176 0.9553,0.0326 0.93314,0.51923 -0.12715,3.45706 1.41447,5.78348 4.62485,6.97929 1.53934,0.57318 3.66445,-0.23602 5.13569,-0.91034 13.39548,-6.10491 28.03969,-12.45932 43.93262,-19.06323 8.43234,-3.5065 3.56229,-15.53649 -5.45582,-11.76701 -8.55948,3.58293 -16.15176,6.88039 -22.77685,9.89238 -3.48736,1.59141 -6.38215,4.10665 -9.64474,5.90036 -1.07618,0.59341 -2.24545,0.71479 -3.5078,0.36414 -0.35997,-0.0999 -0.52802,-0.50919 -0.34057,-0.82942 0.60394,-1.02048 1.30322,-1.89711 2.09787,-2.62988 5.10845,-4.71354 9.89676,-9.65636 11.60639,-16.40637 0.1453,-0.56644 0.46998,-0.96654 0.97401,-1.20031 5.43084,-2.55345 10.97748,-5.04396 16.63991,-7.47154 4.16849,-1.79371 8.05772,-2.29271 12.58721,-1.18007 4.69522,1.15534 8.66619,3.12663 11.91289,5.91385 8.55494,7.35016 13.9154,18.12591 13.59527,29.50855 -0.15665,5.63063 -2.77218,11.93559 -7.92149,14.74079 -2.77899,1.51049 -5.72146,2.86589 -8.67755,4.07967 -23.79854,9.78224 -46.02595,19.12617 -66.68223,28.03178 -1.24873,0.53946 -1.21241,0.96653 0.10898,1.28122 z"
     id="path3"
     style="fill:#925329;fill-opacity:1;stroke:#3b3b3b;stroke-width:1.15212;stroke-dasharray:none;stroke-opacity:1"
     sodipodi:nodetypes="ccccccccccccccccccccccccccccccccccccccccccccccccccccssccccccccccccccccccscccccccccccc" />
  <path
     d="m 92.197262,492.71982 q -13.881285,0 -19.393709,-3.30721 -5.512423,-3.33964 -5.512423,-11.41313 0,-9.07863 7.16615,-14.00703 7.216264,-4.92839 21.498453,-4.92839 7.516947,0 10.373377,0.84301 2.90655,0.84301 3.00678,2.82086 0,2.52905 -2.45553,4.60416 -8.318754,-2.65874 -13.5305,-2.65874 -5.211746,0 -7.717393,2.39935 -2.455534,2.36693 -2.455534,8.36531 0,5.93353 2.405421,8.81924 2.455534,2.85328 8.86999,2.85328 5.211747,0 13.380156,-2.49662 2.10474,1.88057 2.10474,3.95568 0,2.10754 -5.31197,3.1451 -5.31197,1.00513 -12.428008,1.00513 z m 46.204138,-5.60929 q 4.05915,0 6.01355,-2.07511 2.00451,-2.10754 2.00451,-8.13834 0,-6.58201 -2.20496,-9.40287 -2.15486,-2.82086 -6.86548,-2.82086 -4.05914,0 -6.06366,2.10754 -1.95441,2.07511 -1.95441,8.10592 0,6.582 2.15486,9.40286 2.20497,2.82086 6.91559,2.82086 z m -2.35531,5.60929 q -11.2253,0 -16.93818,-3.79356 -5.66276,-3.79357 -5.66276,-10.99163 0,-8.98136 6.86547,-13.90975 6.91559,-4.96082 19.39371,-4.96082 11.2253,0 16.88806,3.79356 5.66276,3.79357 5.66276,10.99163 0,8.98136 -6.86547,13.94218 -6.86547,4.92839 -19.34359,4.92839 z m 43.94905,-29.57038 q 5.46231,-2.20481 10.47361,-3.11267 5.0614,-0.94029 8.46908,-0.94029 7.06592,0 10.47361,2.01027 3.45779,2.01026 3.45779,8.10591 0,15.95245 0.90203,17.21697 0.90203,1.2321 3.90881,1.19968 0.7517,1.16725 0.7517,2.43178 0,1.16725 -1.20271,1.58875 -1.1526,0.42151 -4.46006,0.42151 -8.11829,0 -10.27314,-0.16212 -2.15487,-0.16212 -2.95667,-1.03756 -0.80181,-0.90786 -0.80181,-3.0154 v -11.44555 q 0,-6.61443 -1.90429,-8.85166 -1.85418,-2.26966 -6.06367,-2.26966 -3.55802,0 -5.61264,1.36179 -2.05464,1.32937 -2.05464,5.6093 v 6.51716 q 0,4.08538 0.25057,8.85166 h 5.96344 q 0.85192,1.06998 0.85192,2.39935 0,1.13483 -0.75169,1.58876 -0.70159,0.45393 -2.80633,0.45393 h -23.60319 q -0.90204,-1.3618 -0.90204,-2.56147 0,-1.00514 0.70158,-1.42664 0.70159,-0.45393 2.25508,-0.45393 h 3.65825 q 0.25056,-5.34991 0.25056,-11.05647 0,-9.07863 -1.35305,-10.73224 -1.30293,-1.6536 -4.61038,-1.6536 -0.90204,-1.29695 -0.90204,-2.5939 0,-1.16725 1.30294,-1.52391 1.35304,-0.35666 16.58738,-0.64847 0.25057,1.36179 0,3.72872 z m 70.00778,29.57038 q -13.88129,0 -19.39371,-3.30721 -5.51242,-3.33964 -5.51242,-11.41313 0,-9.07863 7.16615,-14.00703 7.21626,-4.92839 21.49845,-4.92839 7.51694,0 10.37338,0.84301 2.90655,0.84301 3.00677,2.82086 0,2.52905 -2.45554,4.60416 -8.31874,-2.65874 -13.53048,-2.65874 -5.21176,0 -7.71739,2.39935 -2.45554,2.36693 -2.45554,8.36531 0,5.93353 2.40542,8.81924 2.45554,2.85328 8.86999,2.85328 5.21174,0 13.38015,-2.49662 2.10475,1.88057 2.10475,3.95568 0,2.10754 -5.31197,3.1451 -5.31198,1.00513 -12.42801,1.00513 z m 30.41855,-16.27668 q 0,-14.72035 -0.20045,-18.48149 -0.20045,-3.76114 -0.75169,-5.12294 -0.55125,-1.39422 -1.95441,-1.7833 -1.35305,-0.42151 -3.55802,-0.42151 -0.90203,-1.32937 -0.90203,-2.65874 0,-1.36179 1.5535,-1.71846 1.60361,-0.38908 10.12282,-0.38908 5.31197,0 7.26637,0.29181 1.95441,0.25939 2.20497,1.00514 0.30068,0.74574 0.30068,2.10754 v 24.9338 q 0,9.27317 0.25056,13.4234 h 6.41446 q 0.85192,1.06998 0.85192,2.39935 0,1.13483 -0.7517,1.58876 -0.70158,0.45393 -2.80632,0.45393 H 273.9569 q -0.90203,-1.3618 -0.90203,-2.56147 0,-1.00514 0.70158,-1.42664 0.70158,-0.45393 2.25508,-0.45393 h 4.10926 q 0.30068,-4.15023 0.30068,-11.18617 z m 58.38157,13.13159 q -3.75847,1.2321 -8.56931,2.20481 -4.81084,0.94028 -9.07044,0.94028 -7.26638,0 -10.67406,-2.17238 -3.35757,-2.17239 -3.35757,-6.09565 0,-5.4796 5.81311,-8.13834 5.8131,-2.65874 18.34134,-2.65874 h 5.46231 q -0.45102,-4.99325 -2.55576,-6.80898 -2.10475,-1.84815 -6.31424,-1.84815 -2.30519,0 -5.01128,0.38909 -1.75396,2.13997 -2.10475,2.26966 -0.30068,0.12969 -3.4578,0.58362 -3.10699,0.45394 -4.40994,-0.29181 -1.30293,-0.74574 -2.65598,-2.62632 -1.30294,-1.88057 -1.30294,-3.17752 0,-0.81059 1.00226,-1.26452 1.05237,-0.45393 7.61717,-0.97271 6.5648,-0.51878 13.98151,-0.51878 8.81988,0 13.83117,1.97785 5.01129,1.94542 5.01129,7.58713 v 8.59228 q 0,7.16563 0.95215,8.81923 0.95214,1.62119 3.40768,1.26453 0.7517,0.90786 0.7517,1.7833 0,1.45906 -2.70611,2.23723 -2.65598,0.74575 -7.21626,0.74575 -2.00451,0 -3.15711,-0.32424 -1.1526,-0.32424 -3.60814,-2.49662 z m -2.05462,-10.76466 q -3.60814,-0.48636 -7.31649,-0.48636 -4.20949,0 -6.01356,0.90787 -1.80406,0.90786 -1.80406,3.43691 0,2.20481 1.75395,3.33964 1.80407,1.1024 5.21175,1.1024 2.7061,0 4.76073,-0.74575 2.10474,-0.74574 2.75621,-2.10753 0.65147,-1.39422 0.65147,-3.59903 z m 59.78474,-14.00703 q -0.85192,-1.13482 -0.85192,-2.39934 0,-1.26453 0.7517,-1.81573 0.75169,-0.58363 2.50564,-0.58363 h 15.18422 q 0.90204,1.10241 0.90204,2.33451 0,1.42664 -0.85192,1.94542 -0.85193,0.51877 -3.00678,0.51877 h -0.30068 q -1.70384,2.43178 -7.66728,13.58552 -5.96344,11.12132 -8.06819,12.74251 -2.05462,1.58875 -7.21626,1.58875 -8.1183,0 -8.71965,-0.51877 -0.60135,-0.51879 -5.36208,-10.60254 -4.76074,-10.11619 -6.01356,-12.38585 -1.2027,-2.30208 -1.9544,-3.37206 -0.70158,-1.1024 -1.70384,-1.36179 -1.00226,-0.29181 -3.40768,-0.29181 -0.90203,-1.4915 -0.90203,-2.72359 0,-1.19968 1.80406,-1.62119 1.85418,-0.4215 11.52598,-0.4215 3.70835,0 5.21174,0.38908 1.55351,0.38909 2.20497,1.42664 0.70158,1.00514 1.65373,4.76628 0.95215,3.76115 4.15937,11.60767 3.25735,7.84653 3.90881,7.84653 0.70159,0 4.51017,-8.88408 3.80858,-8.88409 4.40994,-11.7698 z m 44.34996,-0.12969 q -3.70835,0 -5.66276,1.94542 -1.9544,1.94542 -2.00452,6.77655 h 2.65599 q 5.56253,0 8.46909,-0.19455 2.95666,-0.22696 3.45779,-0.71331 0.50113,-0.51879 0.50113,-1.68604 0,-2.91813 -1.9544,-4.50689 -1.95441,-1.62118 -5.46232,-1.62118 z m 2.00452,-5.60929 q 10.42349,0 15.13411,3.08024 4.71062,3.04783 4.71062,9.66226 0,3.27479 -2.00452,4.66901 -2.00452,1.39422 -8.76977,1.39422 h -18.64201 q 0.15034,4.24749 2.95666,6.67927 2.80633,2.39935 9.87225,2.39935 6.91559,0 14.23208,-2.59389 2.60587,1.65361 2.60587,3.5666 0,2.59389 -5.91333,3.63145 -5.86321,1.00513 -13.78106,1.00513 -13.63072,0 -19.79461,-3.5666 -6.16389,-3.5666 -6.16389,-11.76979 0,-8.52742 6.91559,-13.32613 6.96569,-4.83112 18.64201,-4.83112 z"
     id="text15"
     style="font-weight:bold;font-size:111.276px;font-family:Kefa;-inkscape-font-specification:'Kefa, Bold';fill:#925329;fill-opacity:1;stroke:#b37a40;stroke-width:3.095;stroke-dasharray:none;stroke-opacity:1"
     aria-label="conclave" />
</svg>
