<?xml version="1.0" encoding="UTF-8" standalone="no"?>
<!-- Created with Inkscape (http://www.inkscape.org/) -->

<svg width="81.279556mm" height="98.803345mm" viewBox="0 0 81.279556 98.803345" version="1.1" id="svg1" xml:space="preserve" sodipodi:docname="drawing.svg" inkscape:export-filename="../Downloads/drawing.svg" inkscape:export-xdpi="96" inkscape:export-ydpi="96"
  xmlns:inkscape="http://www.inkscape.org/namespaces/inkscape"
  xmlns:sodipodi="http://sodipodi.sourceforge.net/DTD/sodipodi-0.dtd"
  xmlns="http://www.w3.org/2000/svg"
  xmlns:svg="http://www.w3.org/2000/svg">
  <defs id="defs1" />
  <g inkscape:label="Layer 1" inkscape:groupmode="layer" id="layer1" transform="translate(-68.768762,-83.105817)">
    <path d="m 262.85327,242.16025 q -1.85174,0 -3.14795,-1.07137 -1.29622,-1.08459 -2.05014,-2.84374 -0.7407,-1.75915 -0.88619,-3.21409 -0.13227,-1.45494 -0.13227,-2.27499 0,-3.58444 1.36235,-6.41496 0.84651,-1.75915 2.18241,-2.83051 1.34912,-1.08459 3.18763,-1.08459 1.36235,0 2.31468,0.60843 0.96555,0.60842 1.49462,1.62688 0.52906,1.00523 0.56874,1.71947 0.0529,0.70102 0.0529,0.88619 0,1.07137 -0.34389,2.18241 -0.30422,0.78038 -0.79361,0.88619 -0.47616,0.10581 -0.70101,0.10581 -0.47616,0 -0.89942,-0.23808 -0.41003,-0.25131 -0.41003,-0.72747 0,-0.15872 0.0397,-0.33066 0.21163,-0.66134 0.21163,-1.58721 0,-1.56075 -0.52907,-2.44694 -0.29098,-0.48939 -0.75392,-0.48939 -0.64811,0 -1.12427,1.05814 -0.47616,1.04491 -0.74069,2.68502 -0.26454,1.62688 -0.29099,2.68502 -0.0132,1.05814 -0.0132,1.3359 0,3.6638 0.89942,5.56844 0.48939,1.05814 1.30944,1.05814 0.64811,0 1.04491,-0.3968 0.3968,-0.3968 0.63488,-0.95232 0.23808,-0.56875 0.38358,-1.08459 0.11904,-0.38358 0.22485,-0.64811 0.26454,-0.5423 0.7407,-0.5423 0.51584,0 0.84651,0.48939 0.34389,0.47616 0.34389,1.07136 0,0.63489 -0.3968,1.74593 -0.68779,1.95755 -2.31467,2.90988 -0.92587,0.55552 -2.31468,0.55552 z m 11.15012,-0.0794 q -1.74593,0 -2.88342,-0.96555 -1.1375,-0.97878 -1.6798,-2.5263 -0.50261,-1.44172 -0.50261,-3.04215 0,-0.11904 0.0132,-1.04491 0.0265,-0.93909 0.64811,-2.48662 0.62166,-1.56075 1.81206,-2.55275 1.19041,-1.00523 2.94956,-1.00523 1.50784,0 2.53953,0.74069 1.04491,0.7407 1.64011,1.94433 0.7936,1.64011 0.7936,3.69025 0,0.92587 -0.22485,2.11627 -0.21163,1.17718 -0.88619,2.39404 -0.67456,1.21686 -1.7327,1.95755 -1.05814,0.7407 -2.48662,0.78038 z m 0.52907,-2.73793 q 0.87296,0 1.40203,-0.83328 0.72747,-1.19041 0.72747,-3.30668 0,-0.72747 -0.15872,-1.74593 -0.1455,-1.01845 -0.66134,-1.9311 -0.51584,-0.91264 -1.3359,-0.91264 -0.75392,0 -1.25653,0.87296 -0.84651,1.44171 -0.84651,3.72993 0,0.47617 0.0794,1.36236 0.0794,0.87296 0.58197,1.77238 0.50262,0.88618 1.41526,0.992 z m 15.02554,2.89665 q -1.67979,0 -1.82529,-1.64011 -0.0397,-1.09782 -0.0397,-2.16918 l 0.0529,-3.71671 q 0,-0.85974 -0.0397,-1.9311 -0.0397,-1.08459 -0.37035,-1.95755 -0.31744,-0.87297 -1.15072,-0.87297 -0.68779,0 -1.15073,0.52907 -0.46293,0.51584 -0.70101,1.32267 -0.22486,0.79361 -0.23808,1.58721 l -0.21163,7.76408 q -0.0794,0.64811 -0.91264,0.91264 -0.41003,0.13227 -0.83329,0.13227 -0.42325,0 -1.05813,-0.1984 -0.62166,-0.1984 -0.64811,-1.15073 -0.0397,-4.40449 -0.0397,-7.11597 0,-2.97601 0.0529,-4.12673 0.11904,-0.95232 1.03169,-1.24331 0.42325,-0.14549 0.84651,-0.14549 1.74592,0 1.75915,1.37557 0.55552,-0.66133 1.50784,-1.04491 0.95233,-0.38357 1.71948,-0.38357 1.65334,0 2.51307,0.96555 0.87296,0.95232 1.19041,2.68502 0.27776,1.5343 0.27776,3.58444 0,2.24854 -0.23808,5.72716 -0.10582,0.78038 -0.88619,1.01846 -0.30422,0.0926 -0.60843,0.0926 z m 7.34082,0 q -1.41525,0 -2.3808,-0.75392 -0.96555,-0.76715 -1.49462,-1.99724 -0.52907,-1.24331 -0.60843,-2.1824 -0.0661,-0.9391 -0.0661,-1.34913 0,-2.7247 1.1375,-4.8542 0.64811,-1.23009 1.65334,-1.98401 1.00523,-0.76715 2.34113,-0.76715 1.36235,0 2.16918,0.63488 0.82005,0.62166 1.07136,1.37558 0.26454,0.75393 0.26454,1.37558 0,1.29622 -0.76715,2.15595 -0.47616,0.46294 -1.07137,0.46294 -0.64811,0 -0.96555,-0.25131 -0.31744,-0.26453 -0.31744,-0.52907 0,-0.13226 0.0661,-0.27776 0.33066,-0.62165 0.33066,-1.5343 0,-1.3888 -0.83328,-1.3888 -0.5952,0 -1.01846,0.9391 -0.41002,0.92587 -0.55552,2.02368 -0.13226,1.08459 -0.13226,1.91788 0,2.05014 0.60842,3.30667 0.43649,0.9391 1.25654,0.9391 0.5423,0 0.9391,-0.30422 0.41003,-0.31744 0.68779,-0.74069 0.27776,-0.42326 0.43648,-0.80683 0.1984,-0.3968 0.42325,-0.41003 0.23808,-0.0265 0.29099,-0.0265 0.33067,0 0.62166,0.23808 0.30421,0.23808 0.30421,0.68779 0,0.42325 -0.26453,1.12427 -0.62166,1.65334 -2.08982,2.49985 -0.83329,0.47616 -2.03692,0.47616 z m 7.18211,0.14549 q -1.65334,0 -1.7327,-1.70624 0,-0.52907 -0.0661,-1.99724 -0.19841,-4.32513 -0.19841,-8.5709 0,-3.30668 0.21163,-6.81176 0.11904,-0.76715 1.03169,-1.03168 0.3968,-0.11904 0.7936,-0.11904 0.50261,0 1.1904,0.26453 0.70102,0.26453 0.7407,1.30944 -0.38358,10.88559 -0.38358,16.13659 v 1.09782 q -0.0397,0.95232 -0.84651,1.28299 -0.37034,0.14549 -0.74069,0.14549 z m 11.8379,0.10582 q -0.89941,0 -1.52107,-0.68779 -0.31744,-0.44971 -0.34389,-1.60044 -0.25131,0.50262 -0.3968,0.71425 -0.79361,1.20363 -2.55276,1.20363 h -0.0794 q -1.57398,-0.10582 -2.56598,-1.11105 -0.992,-1.00523 -1.38881,-2.42048 -0.3968,-1.41526 -0.3968,-2.79084 0,-2.01046 0.72747,-3.83575 0.5952,-1.52107 1.67979,-2.48662 1.08459,-0.97877 2.61889,-0.97877 0.83328,0 1.38881,0.30421 0.55552,0.30422 0.87296,0.72747 0.33067,0.42325 0.44971,0.80683 0.0132,-0.50262 0.14549,-1.07136 0.33067,-0.91265 1.79883,-0.91265 0.47617,0 0.9391,0.15872 0.80683,0.29099 0.88619,1.11105 0.0132,0.70101 0.0132,1.61366 0,3.22731 -0.0794,6.42818 -0.0529,2.14272 -0.11904,3.21409 -0.0661,0.7936 -0.70102,1.20363 -0.63488,0.41003 -1.37558,0.41003 z m -4.12673,-2.02369 q 0.64811,0 1.17718,-0.72747 0.54229,-0.7407 0.91264,-1.87819 0.38357,-1.15073 0.50261,-2.1295 0.13227,-0.99201 0.13227,-1.65334 0,-1.91787 -0.63488,-2.94956 -0.46294,-0.72747 -1.32267,-0.72747 -0.84651,0 -1.40203,1.03169 -0.5423,1.01845 -0.76715,2.35435 -0.21163,1.3359 -0.21163,2.51308 0,1.90464 0.47616,3.13473 0.3968,1.03168 1.1375,1.03168 z m 12.24793,1.61366 q -2.36758,0 -3.67703,-3.74316 -1.11104,-3.14796 -1.11104,-7.67149 l 0.0132,-0.75393 q 0.0794,-0.87296 0.89941,-1.24331 0.50262,-0.22485 1.00523,-0.22485 0.3439,0 0.9391,0.17195 0.60843,0.17194 0.76715,1.15072 l 0.14549,1.46817 q 0.13227,1.5872 0.33067,3.30667 0.1984,1.70625 0.48939,2.93633 0.29099,1.23009 0.72747,1.23009 0.37035,0 0.62165,-0.56875 0.41003,-0.9391 0.87297,-3.59767 0.23808,-1.33589 0.54229,-2.7247 0.30422,-1.3888 0.76715,-2.57921 0.30421,-0.66133 0.96555,-0.66133 0.26453,0 0.48939,0.17194 0.22485,0.15872 0.22485,0.5423 0,0.14549 -0.0265,0.30421 -0.48939,2.11628 -0.82006,4.29868 -0.26453,1.62689 -0.56875,3.09505 -0.30421,1.46817 -0.75392,2.61889 -0.43648,1.1375 -1.12427,1.81206 -0.67456,0.66134 -1.71947,0.66134 z m 9.66872,0.0397 q -1.40203,0 -2.36758,-0.7407 -0.96555,-0.75392 -1.49462,-1.984 -0.70101,-1.58721 -0.70101,-3.65058 0,-0.97877 0.21163,-2.19563 0.22485,-1.21686 0.85973,-2.43371 0.64811,-1.23009 1.64011,-1.97078 1.00523,-0.75393 2.35436,-0.75393 1.15072,0 1.9311,0.68779 0.78037,0.68779 1.1904,1.75915 0.42326,1.15073 0.42326,2.44695 0,1.11104 -0.33067,2.14272 -0.33067,1.03169 -1.07137,1.71947 -0.72746,0.68779 -1.83851,0.68779 -0.71424,0 -1.12427,-0.21162 -0.41003,-0.22486 -0.60843,-0.47617 -0.18517,-0.26453 -0.2513,-0.43648 0.10581,2.22209 1.12427,2.77761 0.29098,0.15872 0.60842,0.15872 0.79361,0 1.75916,-0.992 0.35712,-0.35712 0.67456,-0.35712 0.0794,0 0.31744,0.0661 0.23808,0.0661 0.42326,0.48939 0.0926,0.21163 0.0926,0.43648 0,0.70102 -0.7936,1.5343 -1.23008,1.29622 -3.02892,1.29622 z m -0.2513,-6.98371 q 0.67456,0 1.15072,-1.07136 0.48939,-1.07136 0.48939,-2.28822 0,-0.41003 -0.10582,-0.89942 -0.10581,-0.48938 -0.52906,-0.48938 -0.42326,0 -0.76715,0.51584 -0.33067,0.50261 -0.58198,1.24331 -0.23808,0.72747 -0.35712,1.44171 -0.11904,0.64811 -0.11904,1.08459 v 0.0794 q 0.44971,0.38357 0.82006,0.38357 z" id="text1" style="white-space:pre;fill:#ac9393" transform="matrix(0.84888756,0,0,0.626565,-143.29262,29.972863)" />
    <g id="g1">
      <path fill="#0a120d" d="m 144.06732,153.931 c -1.53458,0.50006 -2.97391,1.00541 -4.52966,1.38377 q -14.10759,3.43693 -28.63057,3.60891 -0.16668,0.003 -0.16933,-0.16404 l -0.0159,-11.18658 q 0,-0.14288 0.14552,-0.14817 3.84175,-0.14817 7.66762,-0.34131 6.49023,-0.32808 12.89315,-1.39965 c 2.64319,-0.44185 5.52979,-0.97102 7.78669,-2.5056 1.03452,-0.70379 1.86795,-2.04788 0.85195,-3.17765 -1.04245,-1.15887 -3.18293,-1.73037 -4.65931,-2.032 -5.18319,-1.06098 -9.10696,-1.38377 -13.65779,-1.94998 q -0.34396,-0.0423 -0.0635,0.16405 c 0.9525,0.70114 2.07433,1.5875 3.2676,1.7436 q 2.3495,0.31221 4.69636,0.64029 c 2.9501,0.4154 5.32606,0.80963 7.61206,2.05581 q 0.28046,0.15611 0.35983,0.25136 0.24871,0.30956 -0.11906,0.45508 c -2.51883,0.99483 -5.40544,1.32821 -8.08037,1.61925 -0.8599,0.0926 -0.90488,-0.36777 -1.47902,-0.77787 -6.13834,-4.37886 -12.5148,-8.46138 -18.64255,-12.82436 a 0.28575,0.28575 0 0 0 -0.36512,0.0291 q -0.84931,0.84137 -1.81769,1.55839 -6.71512,4.99269 -13.737167,9.54088 -1.73037,1.12183 -3.29141,2.46856 -0.14552,0.127 -0.46831,0.0847 c -2.831046,-0.37042 -6.151567,-0.39423 -8.683629,-1.87061 a 0.23283333,0.23283333 0 0 1 0.0053,-0.40746 c 3.899958,-2.10873 8.530169,-2.06375 12.768789,-2.89718 1.10596,-0.21961 1.97115,-0.9234 2.86015,-1.51077 q 0.45773,-0.30163 -0.0873,-0.23813 c -4.2545,0.508 -8.413754,0.88371 -12.610046,1.65894 -1.603375,0.29633 -6.57225,1.27529 -5.614458,3.97669 0.928687,2.61672 6.492875,3.53218 8.818562,3.91847 q 8.583082,1.42875 14.459479,1.55311 3.14854,0.0688 6.32619,0.21696 a 0.08202083,0.08202083 0 0 1 0.0794,0.082 l -0.008,11.18658 a 0.269875,0.27252083 0.5 0 1 -0.27516,0.27252 c -9.506477,-0.17727 -19.227277,-1.19327 -28.47446,-3.55335 q -2.386541,-0.60854 -4.905375,-1.75684 a 0.0238125,0.02645833 15.9 0 0 -0.0344,0.0212 q -0.0026,0.0106 -0.0053,0.0212 -0.0053,0.0159 0.0053,0.0238 c 1.994958,1.39171 4.423833,2.286 6.736291,2.98715 q 5.185833,1.57427 10.567457,2.25689 8.08037,1.02659 16.229537,1.18798 0.12965,0.003 0.12965,0.13229 l 0.0291,5.96371 a 0.08466667,0.08466667 0 0 1 -0.0873,0.0873 c -7.52211,-0.11112 -15.075957,-0.68527 -22.473705,-2.11931 -2.905125,-0.56356 -5.728229,-1.41817 -8.501062,-2.37067 a 1.1006667,1.1059583 48.8 0 0 -0.5715,-0.037 l -3.354917,0.66675 a 0.16404166,0.16404166 0 0 1 -0.195791,-0.17198 l 0.09525,-1.23031 a 0.22489583,0.22489583 0 0 0 -0.209021,-0.24342 l -3.77825,-0.26193 a 0.08202083,0.08466667 68.1 0 1 -0.05821,-0.0238 q -0.08996,-0.0926 0.05027,-0.14816 1.4605,-0.59002 2.7305,-1.09009 a 0.72760416,0.73024999 79.2 0 0 0.460375,-0.67733 q 0.0079,-8.99848 -0.01587,-17.75089 -0.0026,-1.32821 0.246063,-1.92882 c 1.100666,-2.66964 7.532687,-3.97139 10.44575,-4.60375 5.905501,-1.28058 10.832041,-1.75948 17.742958,-2.50031 q 0.17727,-0.0185 0.0503,-0.14552 -2.262187,-2.286 -3.524247,-4.04813 c -3.02419,-4.21745 -4.12486,-9.53822 -2.60086,-14.54414 q 0.24871,-0.80698 1.48697,-3.75444 c 1.93675,-4.61433 1.37054,-9.01964 -0.66675,-13.475228 a 0.12964583,0.12964583 0 0 1 0.16139,-0.17462 c 3.32052,1.18004 6.810377,3.74914 8.453437,6.963828 a 0.08202083,0.08202083 0 0 0 0.14287,0.003 c 1.97644,-3.431648 2.43152,-7.461248 1.67482,-11.321518 -0.52652,-2.68552 -1.34673,-5.30755 -0.53446,-7.99836 q 0.12435,-0.40746 0.46037,-0.14552 c 6.43467,4.98211 12.30577,11.7184 12.26344,20.357038 a 0.06085417,0.05820833 77.2 0 0 0.0847,0.0556 l 0.082,-0.0397 a 0.25135416,0.2460625 82.2 0 0 0.13758,-0.18521 q 0.15611,-0.97631 0.60854,-1.84944 a 0.25135416,0.25135416 0 0 1 0.45509,0.0265 q 0.3757,0.97367 0.84666,1.92617 c 1.19327,2.413 3.13267,4.38679 4.10898,6.88181 2.31511,5.90815 0.60854,12.59681 -3.90525,17.01271 q -2.15106,2.10079 -4.68577,3.76766 a 0.18785416,0.18785416 0 0 0 -0.0423,0.27517 q 0.13229,0.16404 0.40746,0.19315 3.15118,0.32543 6.30766,0.61118 7.68615,0.69586 15.21619,2.38919 c 2.56381,0.57679 5.50333,1.34938 7.64646,2.92629 q 1.47902,1.08479 1.46579,2.94217 -0.0635,8.99054 -0.045,18.05781 a 0.50006249,0.50270833 12 0 0 0.29633,0.45773 c 0.93134,0.4154 2.25161,0.762 3.0824,1.31233 q 0.32808,0.21961 -0.0635,0.25136 l -3.70417,0.29369 a 0.2460625,0.2460625 0 0 0 -0.22489,0.2487 l 0.0159,1.21973 a 0.127,0.127 0 0 1 -0.14816,0.12436 l -3.79148,-0.64029 q -0.33073,-0.0582 -0.64823,0.0476 c -9.72609,3.21469 -20.22211,4.29419 -30.46148,4.4794 a 0.1349375,0.13229166 0 0 1 -0.13494,-0.13229 l -0.008,-5.93461 a 0.12170833,0.12170833 0 0 1 0.11907,-0.12171 c 8.35554,-0.25135 16.62906,-0.86783 24.76764,-2.93158 2.82575,-0.71702 5.86317,-1.80975 8.49048,-3.2041 a 0.05033248,0.05298156 22.1 0 0 -0.0397,-0.0953 z m -39.8145,-45.1194 a 0.1508125,0.1508125 0 0 1 -0.26193,-0.0212 q -0.99748,-2.17752 -2.47915,-4.06135 -0.33337,-0.42333 -0.27517,0.11112 0.23284,2.08492 -0.21695,4.28361 c -0.28311,1.37319 -0.98955,3.19881 -1.338797,4.51908 q -1.82033,6.88181 2.336267,12.30577 c 0.65882,0.85725 1.59015,1.52929 2.43946,2.24102 a 0.10054167,0.10054167 0 0 0 0.16404,-0.0847 c -0.38629,-5.35782 3.9079,-8.64659 7.77346,-11.36386 a 0.24341666,0.24341666 0 0 1 0.381,0.16669 c 0.15875,1.13242 0.41011,2.33892 0.45244,3.41313 q 0.15346,3.91847 -1.14565,7.48506 -0.14816,0.41275 0.24607,0.22489 c 3.31787,-1.58485 5.969,-3.74914 7.45066,-7.31837 1.78065,-4.28625 0.56357,-9.24983 -2.47385,-12.77938 q -0.0926,-0.10848 -0.12965,0.0317 -0.87312,3.38667 -3.937,4.99269 -0.52652,0.27781 -0.25929,-0.254 0.25136,-0.49742 0.43392,-1.18004 c 1.51342,-5.70971 -0.0688,-12.279308 -4.7969,-16.049628 q -0.0952,-0.0794 -0.09,0.045 0.30957,5.654148 -2.51883,10.503958 -0.84667,1.45256 -1.75419,2.78871 z m 34.4514,41.97085 c 1.66952,-0.52916 3.71475,-1.397 5.0509,-2.39448 q 0.67997,-0.508 -0.11642,-0.21431 -3.05594,1.11919 -6.3844,1.96321 -10.27377,2.60085 -20.83064,3.59569 -1.81769,0.17198 -3.62744,0.39158 -0.045,0.005 -0.0423,0.0503 v 0 q 0.003,0.045 0.045,0.0476 13.2662,0.56621 25.90535,-3.43959 z m -33.44598,3.26496 c -6.955897,-0.63764 -11.639017,-1.28587 -18.391184,-2.51089 -3.325812,-0.60325 -6.46377,-1.34673 -9.469437,-2.25955 q -1.172104,-0.35718 -2.76225,-1.09537 -0.04498,-0.0185 -0.06879,0.0238 l -0.03439,0.0661 a 0.13229166,0.13229166 0 0 0 0.04233,0.17198 q 3.024187,2.00554 6.723062,2.97921 8.297332,2.18281 16.539102,2.74372 2.532057,0.17463 7.482407,0.10584 0.0344,0 0.0371,-0.037 l 0.003,-0.0714 a 0.111125,0.11377083 3.6 0 0 -0.10054,-0.11642 z" id="path76" style="fill:#513333;fill-opacity:1;stroke-width:0.264583" />
      <path fill="#fcfefd" d="m 104.25283,108.81159 q 0.90752,-1.33615 1.75419,-2.78871 2.8284,-4.84981 2.51883,-10.503952 -0.005,-0.12435 0.09,-0.045 c 4.72811,3.77032 6.31032,10.339912 4.7969,16.049622 q -0.18256,0.68262 -0.43392,1.18004 -0.26723,0.53181 0.25929,0.254 3.06388,-1.60602 3.937,-4.99269 0.0371,-0.14023 0.12965,-0.0317 c 3.03742,3.52955 4.2545,8.49313 2.47385,12.77938 -1.48166,3.56923 -4.13279,5.73352 -7.45066,7.31837 q -0.39423,0.18786 -0.24607,-0.22489 1.29911,-3.56659 1.14565,-7.48506 c -0.0423,-1.07421 -0.29369,-2.28071 -0.45244,-3.41313 a 0.24341666,0.24341666 0 0 0 -0.381,-0.16669 c -3.86556,2.71727 -8.15975,6.00604 -7.77346,11.36386 a 0.10054167,0.10054167 0 0 1 -0.16404,0.0847 c -0.84931,-0.71173 -1.78064,-1.38377 -2.43946,-2.24102 q -4.156604,-5.42396 -2.336274,-12.30577 c 0.349254,-1.32027 1.055694,-3.14589 1.338804,-4.51908 q 0.44979,-2.19869 0.21695,-4.28361 -0.0582,-0.53445 0.27517,-0.11112 1.48167,1.88383 2.47915,4.06135 a 0.1508125,0.1508125 0 0 0 0.26193,0.0212 z" id="path79" style="fill:#f8cc5b;fill-opacity:1;stroke-width:0.264583" />
    </g>
  </g>
</svg>
