<?xml version="1.0" encoding="UTF-8" standalone="no"?>
<svg width="81.279556mm" height="98.80336mm" viewBox="0 0 81.279556 98.80336" version="1.1" id="svg1" xml:space="preserve"
  xmlns="http://www.w3.org/2000/svg"
  xmlns:svg="http://www.w3.org/2000/svg">
  <g id="layer1" transform="translate(-68.768762,-83.105817)">
    <path fill="#0a120d" d="m 144.06732,153.931 c -1.53458,0.50006 -2.97391,1.00541 -4.52966,1.38377 q -14.10759,3.43693 -28.63057,3.60891 -0.16668,0.003 -0.16933,-0.16404 l -0.0159,-11.18658 q 0,-0.14288 0.14552,-0.14817 3.84175,-0.14817 7.66762,-0.34131 6.49023,-0.32808 12.89315,-1.39965 c 2.64319,-0.44185 5.52979,-0.97102 7.78669,-2.5056 1.03452,-0.70379 1.86795,-2.04788 0.85195,-3.17765 -1.04245,-1.15887 -3.18293,-1.73037 -4.65931,-2.032 -5.18319,-1.06098 -9.10696,-1.38377 -13.65779,-1.94998 q -0.34396,-0.0423 -0.0635,0.16405 c 0.9525,0.70114 2.07433,1.5875 3.2676,1.7436 q 2.3495,0.31221 4.69636,0.64029 c 2.9501,0.4154 5.32606,0.80963 7.61206,2.05581 q 0.28046,0.15611 0.35983,0.25136 0.24871,0.30956 -0.11906,0.45508 c -2.51883,0.99483 -5.40544,1.32821 -8.08037,1.61925 -0.8599,0.0926 -0.90488,-0.36777 -1.47902,-0.77787 -6.13834,-4.37886 -12.5148,-8.46138 -18.64255,-12.82436 a 0.28575,0.28575 0 0 0 -0.36512,0.0291 q -0.84931,0.84137 -1.81769,1.55839 -6.71512,4.99269 -13.737167,9.54088 -1.73037,1.12183 -3.29141,2.46856 -0.14552,0.127 -0.46831,0.0847 c -2.831046,-0.37042 -6.151567,-0.39423 -8.683629,-1.87061 a 0.23283333,0.23283333 0 0 1 0.0053,-0.40746 c 3.899958,-2.10873 8.530169,-2.06375 12.768789,-2.89718 1.10596,-0.21961 1.97115,-0.9234 2.86015,-1.51077 q 0.45773,-0.30163 -0.0873,-0.23813 c -4.2545,0.508 -8.413754,0.88371 -12.610046,1.65894 -1.603375,0.29633 -6.57225,1.27529 -5.614458,3.97669 0.928687,2.61672 6.492875,3.53218 8.818562,3.91847 q 8.583082,1.42875 14.459479,1.55311 3.14854,0.0688 6.32619,0.21696 a 0.08202083,0.08202083 0 0 1 0.0794,0.082 l -0.008,11.18658 a 0.269875,0.27252083 0.5 0 1 -0.27516,0.27252 c -9.506477,-0.17727 -19.227277,-1.19327 -28.47446,-3.55335 q -2.386541,-0.60854 -4.905375,-1.75684 a 0.0238125,0.02645833 15.9 0 0 -0.0344,0.0212 q -0.0026,0.0106 -0.0053,0.0212 -0.0053,0.0159 0.0053,0.0238 c 1.994958,1.39171 4.423833,2.286 6.736291,2.98715 q 5.185833,1.57427 10.567457,2.25689 8.08037,1.02659 16.229537,1.18798 0.12965,0.003 0.12965,0.13229 l 0.0291,5.96371 a 0.08466667,0.08466667 0 0 1 -0.0873,0.0873 c -7.52211,-0.11112 -15.075957,-0.68527 -22.473705,-2.11931 -2.905125,-0.56356 -5.728229,-1.41817 -8.501062,-2.37067 a 1.1006667,1.1059583 48.8 0 0 -0.5715,-0.037 l -3.354917,0.66675 a 0.16404166,0.16404166 0 0 1 -0.195791,-0.17198 l 0.09525,-1.23031 a 0.22489583,0.22489583 0 0 0 -0.209021,-0.24342 l -3.77825,-0.26193 a 0.08202083,0.08466667 68.1 0 1 -0.05821,-0.0238 q -0.08996,-0.0926 0.05027,-0.14816 1.4605,-0.59002 2.7305,-1.09009 a 0.72760416,0.73024999 79.2 0 0 0.460375,-0.67733 q 0.0079,-8.99848 -0.01587,-17.75089 -0.0026,-1.32821 0.246063,-1.92882 c 1.100666,-2.66964 7.532687,-3.97139 10.44575,-4.60375 5.905501,-1.28058 10.832041,-1.75948 17.742958,-2.50031 q 0.17727,-0.0185 0.0503,-0.14552 -2.262187,-2.286 -3.524247,-4.04813 c -3.02419,-4.21745 -4.12486,-9.53822 -2.60086,-14.54414 q 0.24871,-0.80698 1.48697,-3.75444 c 1.93675,-4.61433 1.37054,-9.01964 -0.66675,-13.475228 a 0.12964583,0.12964583 0 0 1 0.16139,-0.17462 c 3.32052,1.18004 6.810377,3.74914 8.453437,6.963828 a 0.08202083,0.08202083 0 0 0 0.14287,0.003 c 1.97644,-3.431648 2.43152,-7.461248 1.67482,-11.321518 -0.52652,-2.68552 -1.34673,-5.30755 -0.53446,-7.99836 q 0.12435,-0.40746 0.46037,-0.14552 c 6.43467,4.98211 12.30577,11.7184 12.26344,20.357038 a 0.06085417,0.05820833 77.2 0 0 0.0847,0.0556 l 0.082,-0.0397 a 0.25135416,0.2460625 82.2 0 0 0.13758,-0.18521 q 0.15611,-0.97631 0.60854,-1.84944 a 0.25135416,0.25135416 0 0 1 0.45509,0.0265 q 0.3757,0.97367 0.84666,1.92617 c 1.19327,2.413 3.13267,4.38679 4.10898,6.88181 2.31511,5.90815 0.60854,12.59681 -3.90525,17.01271 q -2.15106,2.10079 -4.68577,3.76766 a 0.18785416,0.18785416 0 0 0 -0.0423,0.27517 q 0.13229,0.16404 0.40746,0.19315 3.15118,0.32543 6.30766,0.61118 7.68615,0.69586 15.21619,2.38919 c 2.56381,0.57679 5.50333,1.34938 7.64646,2.92629 q 1.47902,1.08479 1.46579,2.94217 -0.0635,8.99054 -0.045,18.05781 a 0.50006249,0.50270833 12 0 0 0.29633,0.45773 c 0.93134,0.4154 2.25161,0.762 3.0824,1.31233 q 0.32808,0.21961 -0.0635,0.25136 l -3.70417,0.29369 a 0.2460625,0.2460625 0 0 0 -0.22489,0.2487 l 0.0159,1.21973 a 0.127,0.127 0 0 1 -0.14816,0.12436 l -3.79148,-0.64029 q -0.33073,-0.0582 -0.64823,0.0476 c -9.72609,3.21469 -20.22211,4.29419 -30.46148,4.4794 a 0.1349375,0.13229166 0 0 1 -0.13494,-0.13229 l -0.008,-5.93461 a 0.12170833,0.12170833 0 0 1 0.11907,-0.12171 c 8.35554,-0.25135 16.62906,-0.86783 24.76764,-2.93158 2.82575,-0.71702 5.86317,-1.80975 8.49048,-3.2041 a 0.05033248,0.05298156 22.1 0 0 -0.0397,-0.0953 z m -39.8145,-45.1194 a 0.1508125,0.1508125 0 0 1 -0.26193,-0.0212 q -0.99748,-2.17752 -2.47915,-4.06135 -0.33337,-0.42333 -0.27517,0.11112 0.23284,2.08492 -0.21695,4.28361 c -0.28311,1.37319 -0.98955,3.19881 -1.338797,4.51908 q -1.82033,6.88181 2.336267,12.30577 c 0.65882,0.85725 1.59015,1.52929 2.43946,2.24102 a 0.10054167,0.10054167 0 0 0 0.16404,-0.0847 c -0.38629,-5.35782 3.9079,-8.64659 7.77346,-11.36386 a 0.24341666,0.24341666 0 0 1 0.381,0.16669 c 0.15875,1.13242 0.41011,2.33892 0.45244,3.41313 q 0.15346,3.91847 -1.14565,7.48506 -0.14816,0.41275 0.24607,0.22489 c 3.31787,-1.58485 5.969,-3.74914 7.45066,-7.31837 1.78065,-4.28625 0.56357,-9.24983 -2.47385,-12.77938 q -0.0926,-0.10848 -0.12965,0.0317 -0.87312,3.38667 -3.937,4.99269 -0.52652,0.27781 -0.25929,-0.254 0.25136,-0.49742 0.43392,-1.18004 c 1.51342,-5.70971 -0.0688,-12.279308 -4.7969,-16.049628 q -0.0952,-0.0794 -0.09,0.045 0.30957,5.654148 -2.51883,10.503958 -0.84667,1.45256 -1.75419,2.78871 z m 34.4514,41.97085 c 1.66952,-0.52916 3.71475,-1.397 5.0509,-2.39448 q 0.67997,-0.508 -0.11642,-0.21431 -3.05594,1.11919 -6.3844,1.96321 -10.27377,2.60085 -20.83064,3.59569 -1.81769,0.17198 -3.62744,0.39158 -0.045,0.005 -0.0423,0.0503 v 0 q 0.003,0.045 0.045,0.0476 13.2662,0.56621 25.90535,-3.43959 z m -33.44598,3.26496 c -6.955897,-0.63764 -11.639017,-1.28587 -18.391184,-2.51089 -3.325812,-0.60325 -6.46377,-1.34673 -9.469437,-2.25955 q -1.172104,-0.35718 -2.76225,-1.09537 -0.04498,-0.0185 -0.06879,0.0238 l -0.03439,0.0661 a 0.13229166,0.13229166 0 0 0 0.04233,0.17198 q 3.024187,2.00554 6.723062,2.97921 8.297332,2.18281 16.539102,2.74372 2.532057,0.17463 7.482407,0.10584 0.0344,0 0.0371,-0.037 l 0.003,-0.0714 a 0.111125,0.11377083 3.6 0 0 -0.10054,-0.11642 z" id="path76" style="fill:#513333;fill-opacity:1;stroke-width:0.264583" />
    <path fill="#fcfefd" d="m 104.25283,108.81159 q 0.90752,-1.33615 1.75419,-2.78871 2.8284,-4.84981 2.51883,-10.503952 -0.005,-0.12435 0.09,-0.045 c 4.72811,3.77032 6.31032,10.339912 4.7969,16.049622 q -0.18256,0.68262 -0.43392,1.18004 -0.26723,0.53181 0.25929,0.254 3.06388,-1.60602 3.937,-4.99269 0.0371,-0.14023 0.12965,-0.0317 c 3.03742,3.52955 4.2545,8.49313 2.47385,12.77938 -1.48166,3.56923 -4.13279,5.73352 -7.45066,7.31837 q -0.39423,0.18786 -0.24607,-0.22489 1.29911,-3.56659 1.14565,-7.48506 c -0.0423,-1.07421 -0.29369,-2.28071 -0.45244,-3.41313 a 0.24341666,0.24341666 0 0 0 -0.381,-0.16669 c -3.86556,2.71727 -8.15975,6.00604 -7.77346,11.36386 a 0.10054167,0.10054167 0 0 1 -0.16404,0.0847 c -0.84931,-0.71173 -1.78064,-1.38377 -2.43946,-2.24102 q -4.156604,-5.42396 -2.336274,-12.30577 c 0.349254,-1.32027 1.055694,-3.14589 1.338804,-4.51908 q 0.44979,-2.19869 0.21695,-4.28361 -0.0582,-0.53445 0.27517,-0.11112 1.48167,1.88383 2.47915,4.06135 a 0.1508125,0.1508125 0 0 0 0.26193,0.0212 z" id="path79" style="fill:#f8cc5b;fill-opacity:1;stroke-width:0.264583" />
    <text xml:space="preserve" transform="matrix(0.84888756,0,0,0.626565,-143.29262,29.972863)" id="text1" style="font-style:normal;font-variant:normal;font-weight:normal;font-stretch:normal;font-size:27.0883px;font-family:'Happy Lucky';-inkscape-font-specification:'Happy Lucky, Normal';font-variant-ligatures:normal;font-variant-caps:normal;font-variant-numeric:normal;font-variant-east-asian:normal;white-space:pre;shape-inside:url(#rect1);fill:#ac9393;fill-opacity:1">
      <tspan x="256.63672" y="242.05443" id="tspan2">Conclave</tspan>
    </text>
  </g>
</svg>
