<?xml version="1.0" encoding="UTF-8" standalone="no"?>
<svg
   version="1.1"
   viewBox="0 0 512 512"
   id="svg6"
   sodipodi:docname="_c97ccd5f-e1ff-4069-81cd-8278d921ac82.svg"
   inkscape:version="1.3 (0e150ed, 2023-07-21)"
   width="512"
   height="512"
   inkscape:export-filename="../../../Volumes/Source/piot/conclave/docs/images/logo.svg"
   inkscape:export-xdpi="96"
   inkscape:export-ydpi="96"
   xmlns:inkscape="http://www.inkscape.org/namespaces/inkscape"
   xmlns:sodipodi="http://sodipodi.sourceforge.net/DTD/sodipodi-0.dtd"
   xmlns:xlink="http://www.w3.org/1999/xlink"
   xmlns="http://www.w3.org/2000/svg"
   xmlns:svg="http://www.w3.org/2000/svg">
  <defs
     id="defs6">
    <linearGradient
       id="linearGradient31"
       inkscape:collect="always">
      <stop
         style="stop-color:#bc7e18;stop-opacity:1;"
         offset="0"
         id="stop31" />
      <stop
         style="stop-color:#fdce7f;stop-opacity:0.99239546;"
         offset="1"
         id="stop32" />
    </linearGradient>
    <linearGradient
       id="linearGradient14"
       inkscape:collect="always">
      <stop
         style="stop-color:#ed3700;stop-opacity:1;"
         offset="0"
         id="stop14" />
      <stop
         style="stop-color:#e4b55a;stop-opacity:1;"
         offset="1"
         id="stop15" />
    </linearGradient>
    <linearGradient
       inkscape:collect="always"
       xlink:href="#linearGradient14"
       id="linearGradient15"
       x1="356.16852"
       y1="429.49808"
       x2="669.59729"
       y2="429.49808"
       gradientUnits="userSpaceOnUse"
       gradientTransform="matrix(0.58573585,0,0,0.60817883,-34.372547,-114.74212)" />
    <linearGradient
       inkscape:collect="always"
       xlink:href="#linearGradient31"
       id="linearGradient32"
       x1="72.741631"
       y1="421.45978"
       x2="497.15778"
       y2="421.45978"
       gradientUnits="userSpaceOnUse"
       gradientTransform="scale(0.93710972,1.0671109)" />
  </defs>
  <sodipodi:namedview
     id="namedview6"
     pagecolor="#4d4d4d"
     bordercolor="#000000"
     borderopacity="0.25"
     inkscape:showpageshadow="2"
     inkscape:pageopacity="0.0"
     inkscape:pagecheckerboard="0"
     inkscape:deskcolor="#d1d1d1"
     inkscape:zoom="0.63252911"
     inkscape:cx="440.29594"
     inkscape:cy="531.99132"
     inkscape:window-width="1392"
     inkscape:window-height="1212"
     inkscape:window-x="461"
     inkscape:window-y="41"
     inkscape:window-maximized="0"
     inkscape:current-layer="svg6" />
  <path
     fill="none"
     stroke-width="0.596852"
     stroke="#f7f0e0"
     vector-effect="non-scaling-stroke"
     d="m 255.87127,45.665046 c -2.33708,22.368813 -9.77007,43.211103 -20.95176,62.070724 -4.93581,8.328 -9.54555,16.54247 -13.82923,24.64341 -1.02309,1.92995 -2.44643,2.90508 -4.27002,2.92534 -2.13207,0.0243 -3.32697,-1.92184 -4.01228,-3.67339 -3.70186,-9.44299 -6.96831,-19.05223 -9.79937,-28.82769 -1.14218,-3.953154 -6.54266,-3.801111 -6.89411,0.59602 -0.8825,11.04858 -2.77247,21.47885 -5.66992,31.2908 -2.26094,7.659 -4.78937,15.3545 -7.58528,23.08647 -3.45193,9.55652 -5.89055,19.18399 -7.31583,28.88242 -1.29643,8.80237 -1.33548,17.76085 -0.11716,26.87542 2.00322,15.03418 7.70829,28.11813 17.1152,39.25186 8.2706,9.79573 18.56784,16.46543 30.89172,20.00908 1.92121,0.55142 3.84633,0.78861 5.77535,0.71157 2.89353,-0.11555 5.19548,-2.42663 4.98461,-5.58308 -0.26944,-3.97141 -3.6257,-5.88109 -6.47823,-7.97931 -1.24567,-0.92037 -2.46205,-1.9705 -3.64914,-3.15036 -13.43678,-13.38602 -19.63972,-32.38552 -18.53854,-51.8959 0.14058,-2.48947 0.45687,-4.8107 0.94889,-6.96365 1.78649,-7.85767 12.10716,-6.26425 12.23602,1.84278 0.0429,2.61923 0.15229,5.24048 0.32801,7.86375 0.73022,11.03642 5.20915,20.45306 13.43678,28.24991 1.33939,1.27312 2.87597,2.30702 4.60974,3.10171 2.59482,1.19203 5.87494,0.27976 5.8808,-3.10779 0.0156,-7.89011 0.01,-15.60587 -0.0175,-23.14729 -0.004,-1.31366 -0.39635,-2.44487 -1.17733,-3.39363 -12.12474,-14.71794 -15.56886,-34.66012 -12.28288,-53.59272 1.01528,-5.85069 2.5089,-11.07494 4.48088,-15.67277 1.96807,-4.59175 4.30516,-9.19566 7.10497,-13.42251 2.66705,-4.02614 5.2892,-7.98741 7.86643,-11.88381 3.34651,-5.05599 5.96085,-10.18497 7.84301,-15.386934 1.06018,-2.931416 3.61985,-4.914083 6.68325,-4.202516 12.46445,2.894934 -1.98565,28.20734 -5.14862,33.82084 -2.10865,3.73421 -4.0943,7.5779 -5.85151,11.47024 -3.8268,8.48612 -5.4942,17.40608 -5.00217,26.75987 0.24991,4.77624 1.15389,8.77805 2.71195,12.00545 0.91765,1.89346 2.40933,2.59895 4.47502,2.11647 2.83496,-0.66292 4.00057,-6.08788 4.28173,-8.55708 0.23039,-1.98672 0.50959,-4.07277 0.8376,-6.25816 0.3944,-2.62733 1.48386,-4.4843 3.26841,-5.57091 2.7471,-1.6725 6.12679,-0.71766 8.02458,1.76979 1.10899,1.45557 1.65373,3.13212 1.6342,5.02964 -0.0781,8.73345 -0.67359,17.97979 -1.78649,27.73904 -0.26553,2.30702 -0.0722,3.98357 0.57988,5.02963 1.15975,1.86509 2.85058,2.26446 5.07247,1.19812 1.63225,-0.77847 3.09464,-2.21783 4.38716,-4.31807 5.89836,-9.59707 8.0363,-21.21936 6.53682,-32.55581 -0.41393,-3.11793 -0.79855,-5.97638 -1.1539,-8.57532 -0.99576,-7.23125 8.09486,-10.86208 11.662,-4.26334 0.56621,1.05012 1.0387,2.17323 1.41747,3.36932 4.37545,13.93945 5.9218,29.71561 2.30781,43.94699 -1.95636,7.69955 -5.78122,14.15233 -10.5081,20.47738 -0.51545,0.68928 -0.77904,1.52856 -0.79075,2.51786 -0.0586,4.54512 -0.10934,8.90374 -0.1523,13.07585 -0.0175,2.12255 0.88447,4.05047 3.05755,3.99573 2.44252,-0.0608 4.91432,-1.76371 6.77696,-3.42405 6.94097,-6.17909 10.84197,-12.99678 13.46607,-21.67548 2.39566,-7.91241 12.25359,-5.9115 11.91972,2.14079 -0.0742,1.80021 -0.23819,3.53959 -0.49201,5.21816 -1.96808,13.11843 -7.46228,25.67124 -16.72276,34.9338 -2.28437,2.28675 -4.84403,4.14778 -7.29827,6.246 -1.88998,1.61775 -2.74515,3.66934 -2.56552,6.15477 0.42759,6.05137 7.1284,4.34239 10.59596,3.35106 13.10096,-3.75044 23.91559,-11.00196 32.4439,-21.75456 2.81544,-3.55176 5.74217,-8.42935 8.78018,-14.63278 1.72988,-3.52743 3.1337,-7.40154 4.21145,-11.6223 3.47536,-13.59077 4.02595,-27.15924 1.65177,-40.70541 -2.47571,-14.10974 -6.93511,-28.06947 -13.3782,-41.87919 -3.19422,-6.85215 -6.23809,-13.46102 -9.13163,-19.82663 -1.76306,-3.88018 -7.15183,-2.52394 -6.93511,1.81238 0.14839,2.95169 0.26554,6.08584 0.35145,9.40244 0.22257,8.50639 -0.71461,16.49179 -2.81154,23.95617 -0.80246,2.85235 -2.0735,5.42495 -5.1369,6.0088 -3.87172,0.74198 -6.15023,-3.19902 -5.93351,-6.65955 0.30459,-4.99113 0.40612,-10.09172 0.30459,-15.30178 -0.22844,-11.57365 -2.6241,-22.99525 -6.30252,-33.91206 C 303.80795,97.376465 299.8308,88.101737 295.19177,79.412885 289.7132,69.138719 284.71296,60.504609 280.19108,53.510553 275.39976,46.106991 271.30741,39.21835 267.91406,32.844636 c -1.62444,-3.053057 -3.12588,-6.298707 -4.50431,-9.736942 -0.97818,-2.44488 -2.98726,-4.950576 -5.71678,-3.010486 -1.14024,0.81496 -1.65764,1.996852 -1.55221,3.545682 0.54279,7.80091 0.45297,15.141629 -0.26944,22.022156 z m 78.67605,270.201694 c -1.13634,-0.28382 -1.16757,-0.669 -0.0937,-1.15554 17.76341,-8.03202 36.87793,-16.45935 57.34353,-25.282 2.5421,-1.09472 5.07248,-2.31716 7.46228,-3.67948 4.42816,-2.53002 6.67739,-8.21649 6.81211,-13.29478 0.27529,-10.26606 -4.33445,-19.98476 -11.69129,-26.61391 -2.792,-2.51381 -6.20685,-4.29172 -10.24451,-5.33373 -3.89515,-1.00349 -7.2397,-0.55344 -10.8244,1.06431 -4.86942,2.18945 -9.63927,4.43565 -14.30953,6.73862 -0.43344,0.21084 -0.71265,0.57169 -0.8376,1.08257 -1.4702,6.08786 -5.58792,10.54582 -9.98095,14.79698 -0.68336,0.66089 -1.2847,1.45153 -1.80406,2.3719 -0.1612,0.28882 -0.0167,0.65794 0.29287,0.74806 1.08556,0.31625 2.09108,0.20678 3.01654,-0.32842 2.80567,-1.61776 5.29505,-3.88626 8.29402,-5.32156 5.69726,-2.71653 12.22626,-5.69053 19.587,-8.92199 7.75515,-3.39971 11.94316,7.4502 4.69175,10.61272 -13.66717,5.9561 -26.26049,11.68718 -37.77996,17.19322 -1.2652,0.60818 -3.09269,1.338 -4.41645,0.82104 -2.76077,-1.0785 -4.08649,-3.17671 -3.97715,-6.29465 0.019,-0.43894 -0.45124,-0.7134 -0.80246,-0.4683 -4.58436,3.13415 -9.16482,5.67431 -13.74136,7.62048 -8.32916,3.54569 -16.51189,5.83244 -25.55566,4.83503 -0.62673,-0.0669 -1.32961,0 -1.6752,0.64467 -0.97233,1.85292 -2.72953,3.35512 -5.27162,4.5066 -31.95384,14.50304 -64.59496,29.57168 -97.92332,45.20593 -0.98795,0.46222 -2.05202,0.86361 -3.19226,1.2042 -2.63582,0.79063 -5.76364,-1.80629 -6.19123,-4.33023 -0.4803,-2.80979 0.7556,-5.26075 3.1454,-6.3798 11.07432,-5.18979 38.06697,-17.75476 80.97798,-37.69492 1.89388,-0.87984 3.63547,-1.75764 5.22477,-2.63342 1.04261,-0.57169 1.49948,-1.4353 1.50534,-2.59693 0.0625,-12.45955 0.0937,-25.97937 0.0937,-40.55944 0,-3.98357 -0.31629,-7.213 -4.15872,-8.51451 -1.90559,-0.64872 -3.72919,-0.45411 -5.47077,0.58386 -2.05398,1.22041 -3.07511,3.23957 -3.0634,6.05746 0.0546,12.69472 0.0137,24.7549 -0.12301,36.18056 -0.008,0.87172 -0.0371,1.76169 -0.0879,2.6699 -0.0174,0.298 -0.19371,0.56092 -0.45688,0.68116 -6.55243,2.92332 -13.00724,5.9115 -19.36443,8.96455 -1.15976,0.55954 -2.3078,0.97107 -3.44412,1.23461 -0.20696,0.0446 -0.40807,0.0284 -0.60331,-0.0487 -4.27197,-1.75966 -8.24716,-3.32876 -11.92558,-4.7073 -7.94258,-2.974 -15.32871,-6.02705 -22.66798,-9.41461 -7.28656,-3.35715 -15.0417,-6.63726 -23.26542,-9.84033 -4.15873,-1.62384 -5.63479,-6.97581 -2.16723,-10.24173 0.4803,-0.45005 0.99575,-0.49871 1.58149,-0.67508 0.16534,-0.0519 0.22908,-0.25987 0.123,-0.4014 -1.56196,-2.01916 -2.61433,-4.37079 -3.15711,-7.05487 -0.24015,-1.17987 -0.98404,-2.17728 -2.05594,-2.64559 -5.09199,-2.22593 -9.99851,-4.26333 -14.71954,-6.11219 -1.95636,-0.77036 -3.76042,-1.1596 -5.4122,-1.1677 -11.2227,-0.0486 -20.70576,9.3842 -24.73562,19.89961 -3.22741,8.42327 -3.74285,22.27759 5.71678,26.92408 8.80361,4.32414 17.77123,7.79685 26.84427,11.70743 3.47928,1.50019 7.09717,3.02468 10.85369,4.57351 8.41507,3.46256 16.84967,7.06704 25.30378,10.81342 0.12886,0.0567 0.22453,0.13583 0.28702,0.23719 0.0431,0.068 0.0182,0.15991 -0.0527,0.19462 -8.66107,4.33834 -16.99219,8.26515 -24.99334,11.78043 -5.51763,2.4246 -8.96371,4.19236 -10.33823,5.30331 -4.94752,4.01398 -8.02264,8.98888 -9.22535,14.92471 -2.09693,10.33499 0.10738,19.31779 6.61296,26.94841 5.81635,6.82984 13.43678,9.83424 22.0471,7.26165 1.81187,-0.53926 3.49879,-1.14946 5.06075,-1.83062 29.71633,-12.9461 58.36468,-25.73204 85.94502,-38.35784 13.2142,-6.0534 24.97969,-11.43376 35.29644,-16.14106 1.27691,-0.58386 3.10441,-1.28326 4.44574,-0.70549 8.98128,3.85585 18.12853,7.75022 27.44172,11.68311 1.81579,0.7663 3.32113,1.338 4.53946,2.88277 1.66349,2.11038 1.52292,5.81419 -0.36901,7.73603 -2.23166,2.2746 -4.71517,2.01307 -7.33927,0.85146 -7.83715,-3.46257 -16.24441,-7.03055 -25.22179,-10.70396 -0.69897,-0.28787 -1.3999,-0.25745 -2.10279,0.0912 -5.97451,2.95575 -12.10716,5.79392 -18.39796,8.51451 -3.08098,1.33191 -3.91858,3.95924 -3.66671,7.20083 0.0186,0.21424 0.11969,0.4133 0.28115,0.55345 0.85518,0.73792 1.97979,1.40489 3.37384,2.00091 18.31401,7.81307 36.62411,15.64642 54.93031,23.50002 3.61399,1.55086 6.84139,3.13213 10.67211,3.54569 6.51924,0.71157 13.23177,-2.6699 17.75365,-7.83942 5.59964,-6.39804 8.32331,-15.04027 7.31584,-23.82237 -1.11875,-9.74911 -6.48995,-17.75274 -15.42242,-21.37141 -10.20352,-4.13561 -19.98726,-8.1577 -29.35122,-12.06627 -0.3905,-0.16218 -0.79075,-0.29394 -1.20076,-0.39531 z"
     id="path1"
     sodipodi:nodetypes="cccccccccccccscccsccccccccccccccccccccsccccccccccccccccccccccccccccccccccccccccccccccccccccccccccccccccccccccccccccscccccccccccccccccccccccccccccccccccccccccccccccccccc" />
  <path
     fill="none"
     stroke-width="1.00"
     stroke="#0a1c1c"
     vector-effect="non-scaling-stroke"
     d="M 234.91951,107.73577 C 246.1012,88.876149 253.53419,68.033859 255.87127,45.665046 q 1.08362,-10.320795 0.26944,-22.022156 -0.15814,-2.323243 1.55221,-3.545682 c 2.72952,-1.94009 4.7386,0.565606 5.71678,3.010486 q 2.06764,5.157356 4.50431,9.736942 5.09004,9.560571 12.27702,20.665917 6.78282,10.491088 15.00069,25.902332 6.95855,13.033272 11.93144,27.824185 c 3.67842,10.91681 6.07409,22.33841 6.30252,33.91206 q 0.15229,7.81509 -0.30458,15.30178 c -0.21673,3.46053 2.06179,7.40153 5.93351,6.65955 3.0634,-0.58385 4.33444,-3.15645 5.13689,-6.0088 q 3.14541,-11.19658 2.81154,-23.95617 -0.12886,-4.9749 -0.35144,-9.40244 c -0.21673,-4.33632 5.17204,-5.69256 6.93511,-1.81238 q 4.34031,9.54841 9.13162,19.82663 9.66465,20.71457 13.3782,41.87919 3.56128,20.31926 -1.65177,40.70541 -1.61663,6.33115 -4.21144,11.6223 -4.55703,9.30514 -8.78018,14.63278 -12.79247,16.12891 -32.4439,21.75456 c -3.46756,0.99133 -10.16838,2.70031 -10.59597,-3.35106 q -0.26944,-3.72814 2.56553,-6.15477 c 2.45423,-2.09822 5.0139,-3.95925 7.29826,-6.246 9.26049,-9.26256 14.75469,-21.81537 16.72277,-34.9338 q 0.38072,-2.51785 0.49201,-5.21816 c 0.33387,-8.05229 -9.52407,-10.0532 -11.91972,-2.14079 -2.6241,8.6787 -6.52511,15.49639 -13.46607,21.67548 -1.86264,1.66034 -4.33445,3.36323 -6.77697,3.42405 -2.17308,0.0548 -3.07511,-1.87318 -3.05754,-3.99573 q 0.0644,-6.25816 0.1523,-13.07585 0.0175,-1.48395 0.79074,-2.51786 c 4.72688,-6.32505 8.55174,-12.77783 10.5081,-20.47738 3.61399,-14.23138 2.06764,-30.00754 -2.3078,-43.94699 q -0.56816,-1.79414 -1.41748,-3.36932 c -3.56713,-6.59874 -12.65776,-2.96791 -11.662,4.26334 q 0.53302,3.89842 1.1539,8.57532 c 1.49948,11.33645 -0.63845,22.95874 -6.53681,32.55581 q -1.93879,3.15037 -4.38716,4.31807 -3.33284,1.59951 -5.07247,-1.19812 -0.97819,-1.56909 -0.57989,-5.02963 1.66935,-14.63886 1.78649,-27.73904 0.0293,-2.84628 -1.6342,-5.02964 c -1.89778,-2.48745 -5.27747,-3.44229 -8.02457,-1.76979 q -2.67682,1.62991 -3.26842,5.57091 -0.49201,3.27808 -0.8376,6.25816 c -0.28115,2.4692 -1.44676,7.89416 -4.28173,8.55708 q -3.09853,0.72373 -4.47502,-2.11647 -2.33708,-4.8411 -2.71195,-12.00545 -0.73803,-14.03068 5.00218,-26.75987 c 1.75721,-3.89234 3.74286,-7.73603 5.8515,-11.47024 3.16297,-5.6135 17.61308,-30.925906 5.14862,-33.82084 -3.0634,-0.711567 -5.62306,1.2711 -6.68325,4.202516 q -2.82325,7.802934 -7.843,15.386934 -3.86586,5.8446 -7.86643,11.88381 c -2.79982,4.22685 -5.1369,8.83076 -7.10498,13.42251 q -2.95796,6.89675 -4.48088,15.67277 c -3.28598,18.9326 0.15815,38.87478 12.28288,53.59272 q 1.17147,1.42313 1.17734,3.39363 0.041,11.31213 0.0175,23.14729 c -0.006,3.38755 -3.28598,4.29982 -5.88079,3.10779 q -2.60067,-1.19203 -4.60974,-3.10171 -12.34145,-11.69527 -13.43678,-28.24991 -0.26358,-3.93491 -0.32801,-7.86375 c -0.12887,-8.10703 -10.44953,-9.70045 -12.23602,-1.84278 q -0.73803,3.22943 -0.94889,6.96365 c -1.10119,19.51038 5.10175,38.50988 18.53853,51.8959 q 1.78064,1.7698 3.64914,3.15036 c 2.85253,2.09822 6.2088,4.0079 6.47824,7.97931 0.21086,3.15645 -2.09108,5.46753 -4.98461,5.58308 q -2.89354,0.11555 -5.77536,-0.71157 -18.48582,-5.31548 -30.89171,-20.00908 -14.11037,-16.70059 -17.1152,-39.25186 -1.82749,-13.67186 0.11715,-26.87542 2.13794,-14.54764 7.31584,-28.88242 4.19386,-11.59797 7.58528,-23.08647 4.34616,-14.71793 5.66992,-31.2908 c 0.35144,-4.397131 5.75193,-4.549174 6.89411,-0.59602 q 4.24659,14.6632 9.79936,28.82769 c 0.68531,1.75155 1.88022,3.69772 4.01229,3.67339 q 2.73539,-0.0304 4.27001,-2.92534 6.42553,-12.15141 13.82923,-24.64341 z"
     id="path2"
     style="fill:url(#linearGradient15);fill-opacity:1;fill-rule:nonzero;stroke:#535353;stroke-width:1.19371;stroke-dasharray:none;stroke-opacity:1" />
  <path
     fill="none"
     stroke-width="1"
     stroke="#0a1c1c"
     vector-effect="non-scaling-stroke"
     d="m 334.54732,315.86674 c 0.41001,0.10136 0.81026,0.23313 1.20076,0.39531 9.36396,3.90857 19.1477,7.93066 29.35122,12.06627 8.93247,3.61867 14.30367,11.6223 15.42242,21.37141 1.00747,8.7821 -1.7162,17.42432 -7.31583,23.82236 -4.52189,5.16952 -11.23442,8.55099 -17.75366,7.83942 -3.83072,-0.41356 -7.05812,-1.99482 -10.67211,-3.54568 -18.3062,-7.85361 -36.61629,-15.68696 -54.93031,-23.50003 -1.39405,-0.59601 -2.51866,-1.26299 -3.37383,-2.00091 -0.16147,-0.14014 -0.2626,-0.3392 -0.28116,-0.55344 -0.25187,-3.24159 0.58573,-5.86892 3.66671,-7.20084 6.2908,-2.72058 12.42346,-5.55875 18.39796,-8.5145 0.70289,-0.34869 1.40382,-0.3791 2.1028,-0.0912 8.97737,3.6734 17.38464,7.24138 25.22178,10.70395 2.6241,1.16162 5.10761,1.42314 7.33927,-0.85145 1.89193,-1.92184 2.0325,-5.62565 0.36901,-7.73604 -1.21833,-1.54477 -2.72367,-2.11646 -4.53945,-2.88276 -9.3132,-3.93289 -18.46044,-7.82727 -27.44173,-11.68312 -1.34133,-0.57777 -3.16883,0.12163 -4.44573,0.70549 -10.31676,4.7073 -22.08225,10.08766 -35.29644,16.14107 -27.58035,12.62579 -56.2287,25.41173 -85.94503,38.35784 -1.56195,0.68115 -3.24888,1.29136 -5.06075,1.83061 -8.61032,2.5726 -16.23075,-0.4318 -22.0471,-7.26165 -6.50557,-7.63062 -8.70989,-16.61342 -6.61296,-26.94841 1.20272,-5.93582 4.27783,-10.91072 9.22535,-14.9247 1.37452,-1.11095 4.8206,-2.87871 10.33823,-5.30332 8.00115,-3.51527 16.33227,-7.44209 24.99335,-11.78043 0.0709,-0.0347 0.0958,-0.1266 0.0527,-0.19461 -0.0625,-0.10137 -0.15815,-0.18044 -0.28702,-0.23719 -8.45411,-3.74639 -16.88871,-7.35086 -25.30378,-10.81343 -3.75652,-1.54882 -7.37441,-3.07332 -10.85368,-4.5735 -9.07305,-3.91059 -18.04067,-7.38329 -26.84428,-11.70744 -9.45963,-4.64649 -8.94418,-18.5008 -5.71678,-26.92408 4.02986,-10.51541 13.51292,-19.94827 24.73562,-19.89961 1.65178,0.008 3.45585,0.39735 5.4122,1.16771 4.72103,1.84886 9.62755,3.88626 14.71954,6.11219 1.0719,0.4683 1.81579,1.46571 2.05594,2.64558 0.54278,2.68409 1.59515,5.03572 3.15712,7.05487 0.10607,0.14154 0.0423,0.34954 -0.12301,0.40141 -0.58574,0.17636 -1.10119,0.22502 -1.58149,0.67507 -3.46756,3.26592 -1.9915,8.61789 2.16723,10.24173 8.22372,3.20307 15.97887,6.48319 23.26542,9.84034 7.33927,3.38755 14.7254,6.44061 22.66798,9.4146 3.67842,1.37855 7.65361,2.94764 11.92558,4.70731 0.19524,0.077 0.39635,0.0933 0.60331,0.0487 1.13632,-0.26355 2.28437,-0.67508 3.44412,-1.23461 6.35719,-3.05306 12.812,-6.04124 19.36443,-8.96456 0.26318,-0.12024 0.43953,-0.38315 0.45688,-0.68115 0.0508,-0.90822 0.0801,-1.79818 0.0879,-2.66991 0.13668,-11.42565 0.17768,-23.48584 0.12301,-36.18055 -0.0117,-2.8179 1.00942,-4.83705 3.0634,-6.05747 1.74158,-1.03796 3.56518,-1.23257 5.47078,-0.58385 3.84242,1.3015 4.15872,4.53093 4.15872,8.5145 0,14.58008 -0.0312,28.09989 -0.0937,40.55945 -0.006,1.16162 -0.46273,2.02523 -1.50534,2.59692 -1.58929,0.87578 -3.33089,1.75359 -5.22477,2.63342 -42.91101,19.94016 -69.90366,32.50513 -80.97798,37.69493 -2.3898,1.11904 -3.6257,3.57001 -3.1454,6.37979 0.42759,2.52395 3.55542,5.12086 6.19123,4.33024 1.14024,-0.34059 2.20432,-0.74198 3.19226,-1.2042 33.32837,-15.63425 65.96948,-30.7029 97.92332,-45.20593 2.5421,-1.15148 4.2993,-2.65369 5.27162,-4.50661 0.34559,-0.64467 1.04847,-0.71157 1.6752,-0.64467 9.04377,0.99742 17.2265,-1.28933 25.55566,-4.83502 4.57655,-1.94618 9.157,-4.48634 13.74137,-7.62048 0.35121,-0.2451 0.82151,0.0294 0.80245,0.46829 -0.10934,3.11794 1.21638,5.21615 3.97715,6.29466 1.32376,0.51695 3.15125,-0.21287 4.41645,-0.82104 11.51947,-5.50605 24.1128,-11.23712 37.77996,-17.19322 7.25141,-3.16253 3.0634,-14.01244 -4.69175,-10.61272 -7.36074,3.23146 -13.88974,6.20545 -19.587,8.92198 -2.99896,1.4353 -5.48835,3.70381 -8.29402,5.32156 -0.92546,0.5352 -1.93098,0.64468 -3.01654,0.32842 -0.30956,-0.0901 -0.45407,-0.45924 -0.29287,-0.74805 0.51936,-0.92038 1.1207,-1.71102 1.80407,-2.3719 4.39302,-4.25117 8.51074,-8.70912 9.98094,-14.79699 0.12495,-0.51087 0.40416,-0.87173 0.8376,-1.08256 4.67026,-2.30297 9.44011,-4.54918 14.30953,-6.73862 3.5847,-1.61776 6.92925,-2.06781 10.8244,-1.06431 4.03766,1.042 7.45251,2.81992 10.24451,5.33373 7.35684,6.62914 11.96658,16.34784 11.69129,26.6139 -0.13471,5.07829 -2.38394,10.76477 -6.81211,13.29479 -2.38979,1.36232 -4.92018,2.58476 -7.46227,3.67947 -20.46561,8.82265 -39.58012,17.24999 -57.34354,25.282 -1.07385,0.48654 -1.04261,0.87172 0.0937,1.15554 z"
     id="path3"
     style="fill:#925329;fill-opacity:1;stroke:#3b3b3b;stroke-width:1.01465;stroke-dasharray:none;stroke-opacity:1"
     sodipodi:nodetypes="ccccccccccccccccccccccccccccccccccccccccccccccccccccssccccccccccccccccccscccccccccccc" />
  <path
     style="font-weight:bold;font-size:106.638px;font-family:Baskerville;-inkscape-font-specification:'Baskerville, Bold';fill:#de9360;fill-opacity:0.0117647;stroke:url(#linearGradient32);stroke-width:3.019;stroke-opacity:1"
     d="m 108.03167,473.2992 4.97705,2.50037 q -2.04937,6.38984 -7.46559,9.89034 -5.3674,3.44496 -12.540225,3.44496 -9.807731,0 -16.638987,-6.22314 -6.78246,-6.27871 -6.78246,-17.28033 0,-11.55726 7.416791,-18.61385 7.416791,-7.0566 19.225105,-7.0566 7.319206,0 11.564336,3.056 4.29393,3.05601 4.29393,8.05675 0,2.83374 -1.70781,5.00074 -1.65902,2.11142 -4.34272,2.11142 -5.31862,0 -6.782465,-7.89005 -0.439158,-2.33369 -1.317454,-3.33383 -0.878306,-1.00015 -3.025272,-1.00015 -4.342728,0 -6.538489,3.94503 -2.146966,3.88946 -2.146966,11.72395 0,10.7238 2.586118,15.44673 2.634913,4.66735 8.197507,4.66735 7.611971,0 11.027601,-8.44569 z m 10.53965,-8.8902 q 0,-11.44614 7.12402,-17.9471 7.12402,-6.50095 17.22452,-6.50095 9.85653,0 17.17573,6.33426 7.3192,6.27871 7.3192,18.16936 0,11.27943 -7.17281,18.00265 -7.17282,6.66765 -17.37092,6.66765 -9.95411,0 -17.12692,-6.33427 -7.17282,-6.38984 -7.17282,-18.3916 z m 16.73657,-0.55564 q 0,10.66825 1.70781,14.94666 1.75661,4.22284 6.05055,4.22284 3.46442,0 5.5138,-3.55608 2.09817,-3.55608 2.09817,-15.16891 0,-10.55711 -1.8542,-14.27988 -1.8542,-3.77833 -5.85537,-3.77833 -3.17164,0 -5.4162,3.22269 -2.24456,3.16713 -2.24456,14.39101 z m 60.45662,-7.77892 v 18.05821 q 0,3.88947 1.02468,5.55639 1.02469,1.66691 3.6596,1.72247 v 5.88975 h -27.32502 v -5.88975 q 4.24514,0 5.41621,-1.50023 1.17107,-1.55578 1.17107,-5.77863 v -15.55784 q 0,-4.22285 -1.17107,-5.77863 -1.12228,-1.61135 -5.41621,-1.61135 v -5.88976 l 21.66484,-4.05616 q 0.82951,2.16699 0.9759,6.66766 3.22044,-4.0006 6.73366,-5.94532 3.56201,-2.0003 7.36799,-2.0003 6.83126,0 10.73484,4.33397 3.90357,4.27841 3.90357,11.77952 v 18.05821 q 0,4.16729 1.17107,5.72307 1.21987,1.55579 5.22104,1.55579 v 5.88975 h -27.17864 v -5.88975 q 2.04937,-0.11113 3.41562,-1.33353 1.41505,-1.2224 1.41505,-5.94533 v -16.66912 q 0,-4.55622 -1.12228,-6.22314 -1.07348,-1.66691 -3.12286,-1.66691 -2.04937,0 -4.19634,1.61135 -2.14696,1.61135 -4.34272,4.88961 z m 77.77872,17.22476 4.97705,2.50037 q -2.04937,6.38984 -7.46559,9.89034 -5.36741,3.44496 -12.54023,3.44496 -9.80773,0 -16.63898,-6.22314 -6.78246,-6.27871 -6.78246,-17.28033 0,-11.55726 7.41679,-18.61385 7.41679,-7.0566 19.2251,-7.0566 7.31921,0 11.56434,3.056 4.29393,3.05601 4.29393,8.05675 0,2.83374 -1.70782,5.00074 -1.65901,2.11142 -4.34272,2.11142 -5.31861,0 -6.78246,-7.89005 -0.43915,-2.33369 -1.31746,-3.33383 -0.87831,-1.00015 -3.02527,-1.00015 -4.34273,0 -6.53849,3.94503 -2.14696,3.88946 -2.14696,11.72395 0,10.7238 2.58612,15.44673 2.63491,4.66735 8.19751,4.66735 7.61196,0 11.0276,-8.44569 z m 30.74063,-62.67592 v 63.39824 q 0,4.27842 1.17108,5.8342 1.17107,1.55579 5.61139,1.55579 v 5.88975 h -29.71596 v -5.88975 q 3.90357,0 5.5138,-1.05571 1.61022,-1.05571 1.61022,-6.33428 v -46.06235 q 0,-4.38953 -1.26866,-5.83419 -1.21987,-1.50022 -5.85536,-1.50022 v -5.94533 z m 38.93816,71.84394 q -3.56201,2.94488 -7.46559,4.4451 -3.85478,1.44466 -8.09991,1.44466 -5.61139,0 -8.44148,-2.88931 -2.7813,-2.88932 -2.7813,-7.16773 0,-6.05646 5.61139,-10.72381 5.61139,-4.66735 20.29858,-10.33486 v -4.11172 q 0,-4.38953 -1.85419,-5.61193 -1.8542,-1.27796 -4.39152,-1.27796 -6.14813,0 -6.83126,5.11185 -0.48794,3.50052 -1.95178,5.11187 -1.46384,1.55578 -4.53791,1.55578 -2.78129,0 -4.44032,-1.66691 -1.61022,-1.72248 -1.61022,-4.00059 0,-5.16743 6.00175,-8.77907 6.00174,-3.61164 16.05344,-3.61164 5.61139,0 9.36858,0.77789 3.80599,0.77789 6.09934,2.88932 2.34214,2.11142 3.07406,4.44509 0.78072,2.33369 0.78072,6.33428 v 21.11422 q 0,4.77848 2.53732,4.77848 2.19576,0 2.78129,-3.11156 h 4.04997 q -0.14639,5.72306 -3.7084,8.44568 -3.51321,2.72263 -8.44147,2.72263 -8.97823,0 -12.10109,-5.88976 z m -0.87831,-6.00089 v -13.00191 q -6.78246,3.22269 -8.88063,5.83419 -2.04937,2.6115 -2.04937,5.38969 0,2.11142 1.21986,3.83389 1.21987,1.66692 3.22045,1.66692 1.75662,0 3.36683,-0.94459 1.61023,-0.94458 3.12286,-2.77819 z m 45.52546,11.61283 -13.95528,-31.50465 q -2.7325,-6.11202 -4.00117,-7.50111 -1.26866,-1.38909 -3.6596,-1.38909 v -5.88976 h 26.10516 v 5.88976 q -4.53791,0 -4.53791,2.22255 0,0.55563 1.21987,3.22269 l 8.53907,19.50288 8.83184,-20.28077 q 0.68313,-1.61135 0.68313,-2.33367 0,-2.33368 -4.09876,-2.33368 v -5.88976 h 15.32153 v 5.88976 q -2.29335,0 -3.61081,1.50022 -1.31745,1.50022 -4.63549,9.00133 l -13.27215,29.8933 z m 49.38021,-24.05911 q 0,9.05689 2.6837,13.61312 2.73251,4.55624 8.14872,4.55624 5.75777,0 10.58845,-6.66766 l 4.5379,3.11157 q -2.7813,4.55622 -8.00233,7.55667 -5.17223,2.94488 -11.46675,2.94488 -9.66135,0 -16.54139,-6.66765 -6.88006,-6.72322 -6.88006,-18.11378 0,-11.39058 6.63608,-17.89154 6.68487,-6.50095 16.05345,-6.50095 9.41737,0 15.41912,6.00088 6.05054,5.94533 6.05054,18.05822 z m -0.0488,-5.61194 h 12.34505 q -0.29276,-12.27958 -6.29451,-12.27958 -3.02527,0 -4.53791,3.056 -1.51263,3.056 -1.51263,9.22358 z"
     id="text30"
     aria-label="conclave" />
</svg>
